<svg id="Layer_1" data-name="Layer 1" xmlns="http://www.w3.org/2000/svg" viewBox="0 0 716.22928 356.68921">
  <defs>
    <style>
      .cls-1 {
        fill: none;
      }

      .cls-2 {
        fill: #b55050;
      }

      .cls-3 {
        fill: #171717;
      }

      .cls-4 {
        fill: #abadaa;
      }

      .cls-5 {
        fill: #fefefe;
      }

      .cls-6 {
        fill: #74472a;
      }

      .cls-7 {
        fill: #0f75bd;
      }

      .cls-8 {
        fill: #f5ed30;
      }
    </style>
  </defs>
  <title>despicable-me-minions-001</title>
  <path d="M742.06353,403.15812a5.31955,5.31955,0,0,0-4.1206-2.23013c-2.4388-.05317-4.66076,1.71047-5.69605,2.69253l-.90026-.34781c4.27614-4.24747,6.584-6.6822,6.86635-7.251.36828-.73655,1.2153-4.55028-.46235-7.18141-.753-1.17849-2.29155-2.56158-5.41777-2.47564-5.72876.16366-9.031,7.09956-11.21207,11.69077a24.83654,24.83654,0,0,1-1.70222,3.24084c-.42559.57695-.70791.67109-.74477.67518-.13911-.01638-.4051-.28234-.6097-.58515a9.66161,9.66161,0,0,0-7.10771-10.17266c-3.22862-.82249-6.00709.49513-7.07913,3.35132-2.09514,5.59375,2.11961,10.31179,3.92009,12.32913.27827.311.62608.69973.68747.802a18.12822,18.12822,0,0,1-.02457,5.90881,16.78411,16.78411,0,0,1-2.33241,1.33806c-1.90687.98618-3.87509,2.00508-4.76306,3.27358-1.30127,1.85777-.24961,4.09607.58108,5.36869l-.03687.03272-22.57129,19.81336a4.56037,4.56037,0,0,0-.27014-1.91914,5.746,5.746,0,0,0-3.61724-3.17128l.87154-6.10934a2.81114,2.81114,0,0,0,.83888-.6547c2.78666-3.114,1.57135-15.32855,1.55907-15.4513-.2046-1.81274-2.39795-3.58458-3.48228-4.35794a57.56613,57.56613,0,0,0-21.14325-38.27225,67.31071,67.31071,0,0,0-15.42677-9.51793c-1.6245-.712-2.63521-1.05571-2.76208-1.09665-26.0208-8.184-42.01637-6.48986-46.362-5.76151-.29466.04911-.53193.09414-.72019.131-14.17461-7.39827-34.91271-5.16817-45.45773,11.45753-9.18237,14.4856-2.78256,28.37785-1.39948,31.02535l-.05319.23325-5.76968,25.41524a3.81472,3.81472,0,0,0-1.15391.978,7.47189,7.47189,0,0,0-.89617,1.40354l-5.70014-21.33963a1.53451,1.53451,0,0,1,.131-1.113,1.40988,1.40988,0,0,1,.5115-.54014,3.1805,3.1805,0,0,0,1.59178-2.43473c.2005-2.0296-2.32426-5.94972-3.41269-7.53331V389.6587c4.66071-2.63523,7.2141-7.4392,7.2141-13.60991a2.96815,2.96815,0,0,0-.96975-2.25875,4.98107,4.98107,0,0,0-2.979-1.08848,13.76036,13.76036,0,0,0-3.02807-5.25408c.98209-1.23579,2.48381-3.59686,2.12376-6.1748-.28646-2.08283-1.68184-3.81372-4.14522-5.13952a6.96865,6.96865,0,0,0-6.17887-.54014c-3.28582,1.36673-5.14359,5.26227-5.86378,7.11185-.07363.19231-.13916.36009-.18821.5033l-.63018.35193a15.0781,15.0781,0,0,0-5.5978-2.24651c-2.41432-.32326-4.66081,2.77846-5.52012,4.12471-1.66541,2.623-3.12217,6.44077-1.74723,8.58089.53193.82246.96565,1.50994,1.31761,2.11554a6.75638,6.75638,0,0,1,1.14167,3.33495c-.72428.63837-4.268,1.12122-5.63056,1.30534a13.38858,13.38858,0,0,0-2.92582.56469c-1.26436.54014-2.19324,2.99943-2.76208,7.31236l-.52374.41739-26.0659,20.74631a51.00085,51.00085,0,0,1-4.66072-6.24026q-.05529-.11662-.0982-.20869l-.06144-72.58345,1.199-.13094.31509-.49512c3.04445-4.759,1.40767-15.36538,1.10077-17.15764.58922-3.20812.36823-17.21494-.05325-19.03178a3.67788,3.67788,0,0,0-1.87411-2.41018,3.77579,3.77579,0,0,0-.33961-.17185,29.08767,29.08767,0,0,0-9.26014-19.98931,32.35881,32.35881,0,0,0-9.03506-6.13387,38.42981,38.42981,0,0,0-13.53219-2.62294,51.825,51.825,0,0,0-20.38212-5.72467c-.0082-.18-.01227-.38055-.02046-.59334-.00819-.2496.01636-.51969.02455-.80613a7.7237,7.7237,0,0,1,.08185-.92886,10.05376,10.05376,0,0,1,.1514-1.02709c.06546-.3601.13094-.73246.23734-1.1171.09411-.38465.18821-.78568.32326-1.19078.11865-.4051.2496-.82249.40919-1.24395.07775-.21279.1555-.42558.23325-.64245.08591-.21279.17186-.42555.26189-.64244.34781-.87159.7652-1.75545,1.21121-2.64342.221-.446.46649-.88386.69974-1.3299.2496-.43781.49921-.87976.75291-1.3217.51968-.87159,1.05573-1.735,1.61223-2.56974.54834-.83888,1.12123-1.64908,1.68183-2.42656,1.12119-1.55085,2.23829-2.9544,3.22038-4.137,1.78-2.14829,3.13034-3.55593,3.36768-3.80144-.24143.20869-1.69818,1.51811-3.65413,3.54364-1.07209,1.113-2.29968,2.43882-3.54773,3.916-.622.74065-1.26034,1.514-1.87823,2.32014-.63015.80614-1.23985,1.645-1.83729,2.492-.29054.43375-.58105.8634-.87159,1.293-.27416.44194-.55651.87159-.82249,1.31353-.5156.8716-1.01481,1.74319-1.44039,2.61888.02048-.07366.04913-.1514.07775-.22915.34783-.94525.73248-1.915,1.17033-2.88894.20867-.48694.43784-.97389.67106-1.46083.221-.49105.47059-.978.712-1.46084.48695-.97389,1.00661-1.93143,1.5345-2.86438.536-.933,1.07209-1.84139,1.6204-2.70889.54014-.87159,1.08438-1.70227,1.60814-2.48383.51969-.78565,1.02709-1.514,1.48949-2.19739,1.825-2.63113,3.06079-4.41525,3.13446-4.52572-.04912.04091-.46239.401-1.10893,1.03935-.69564.67519-1.65315,1.6818-2.72934,2.94623-1.08438,1.26033-2.27106,2.79889-3.47818,4.49707-.60972.84295-1.21123,1.735-1.81683,2.64752-.59744.9207-1.19078,1.86594-1.75138,2.83164-.5647.9657-1.1171,1.93959-1.59995,2.93394-.49924.98209-.94934,1.97643-1.35854,2.95442-.4092.97389-.7652,1.93959-1.0721,2.86845-.1514.46649-.27825.92479-.40919,1.36673-.12276.446-.21279.88795-.31509,1.30534-.06139.29871-.12276.59335-.17186.87569a.69239.69239,0,0,1-.0041-.09413c.0041-.23322.01227-.47466.01636-.72426.01639-.49514.02046-1.01483.06958-1.559.06547-1.09258.19232-2.27107.36417-3.52321.16779-1.24805.38874-2.56156.67109-3.916.135-.67928.27825-1.36673.45011-2.05827.08594-.38465.18-.77339.27418-1.16214.03272-.06136.06546-.12685.1023-.18821.221-.38055.42965-.80613.69154-1.23579.27416-.42555.54422-.88385.8675-1.33808.32735-.45011.64244-.92886,1.00254-1.39126.356-.46239.7079-.94114,1.09664-1.39944.37236-.46649.75291-.92479,1.14166-1.36673.38055-.45011.77748-.87569,1.14574-1.29715.38055-.41739.74475-.82249,1.09258-1.203s.67926-.74065.98615-1.0762c1.2276-1.33808,2.05009-2.23013,2.05009-2.23013s-.06549.04091-.18824.11459c-.12276.07775-.29461.19231-.5156.34781-.44191.2987-1.0598.74065-1.7718,1.31353-.70793.57286-1.51813,1.2685-2.34472,2.06235-.41329.39284-.83475.8061-1.244,1.244-.42149.42968-.83885.87978-1.24395,1.33808-.4133.45011-.79385.933-1.17849,1.39945-.18.2087-.34784.42558-.50333.64654.09-.311.18414-.62606.27825-.937.43377-1.41584.89614-2.83167,1.379-4.21476.48694-1.38306.978-2.7375,1.48536-4.03877,1.00663-2.61069,2.02144-5.01674,2.934-7.05866.90841-2.046,1.645-3.7646,2.14419-4.97993.47059-1.13755.73655-1.8291.7652-1.91094-.0532.06956-.5074.6588-1.1703,1.70225-.70793,1.10893-1.65317,2.73344-2.668,4.7508-1.01071,2.01325-2.1401,4.38659-3.27358,6.97272-.57289,1.28895-1.12939,2.63523-1.68589,4.01422-.55241,1.3749-1.08846,2.78664-1.59588,4.20654-.49921,1.424-.9739,2.86031-1.39536,4.2925-.21688.712-.42148,1.424-.6056,2.1319-.13095.46649-.24963.92889-.3601,1.39128-.06548.23735-.11868.47466-.176.70791-.33554,1.38309-.60972,2.73753-.83068,4.03061-.221,1.29715-.37646,2.53293-.47466,3.68277-.06139.57287-.08184,1.12937-.10639,1.65315-.01639.266-.02865.52376-.04094.77339v.6588c-.08182-.23734-.176-.48694-.27825-.73655-.14731-.36419-.3069-.74064-.48285-1.12529.0041-.02865.04093-.16369.09411-.39284a11.31814,11.31814,0,0,0,.23324-1.12939,16.26729,16.26729,0,0,0,.18415-1.7718c.00409-.34374.00819-.70793.01638-1.08848-.02048-.38055-.03274-.78156-.06139-1.19485-.02865-.3069-.06548-.61789-.11049-.94115h.0041s.01228-.11049.03274-.32328c.01636-.21277.06955-.52376.07775-.9166.01636-.39284.04091-.8675.02045-1.40764,0-.27006-.01229-.5565-.03684-.85521-.02045-.29873-.03271-.6138-.07775-.93708a32.21663,32.21663,0,0,0-.77336-4.34567c-.19234-.77746-.4092-1.5754-.65473-2.37334-.23732-.802-.5115-1.60405-.78975-2.402a78.14064,78.14064,0,0,0-3.64184-8.50313c-1.04755-2.11145-1.85368-3.515-1.95188-3.68278.08184.176.75291,1.64908,1.6,3.83827a77.36266,77.36266,0,0,1,2.81938,8.70364c.2005.80611.39284,1.60814.5524,2.40608.16779.79385.30283,1.5795.41739,2.3365.04094.28645.08185.56879.11869.843q-.6138-1.35036-1.33809-2.65979c-.5074-.94117-1.06393-1.84548-1.62452-2.72936-.57287-.8716-1.13756-1.7268-1.74316-2.51655-.59744-.78975-1.19488-1.54268-1.79229-2.226-.59334-.69154-1.18259-1.31353-1.73909-1.87822s-1.09258-1.05164-1.57543-1.4772c-.48694-.42149-.92886-.7652-1.29305-1.04755-.37238-.27825-.6629-.48694-.87159-.61789-.18-.11866-.28644-.18824-.311-.2005.02045.02045.11049.10639.26189.26189.176.17186.42555.43375.73655.7611.3069.33555.67109.75291,1.07619,1.23579.4092.48285.85521,1.03935,1.32989,1.65315.46649.61789.9698,1.28895,1.4731,2.01734.5074.72838,1.02709,1.50174,1.54268,2.32014.5115.81839,1.023,1.66953,1.52221,2.54932.48287.88795.96572,1.78819,1.39128,2.71705.43784.92479.83475,1.86187,1.18258,2.79892.3601.933.65881,1.86184.92887,2.76618a26.02345,26.02345,0,0,1,.59743,2.63113c.0491.266.09.532.12276.78975a.26687.26687,0,0,1-.00817.04091l.01226.0041c.06956.536.11049,1.04754.14731,1.53449.01638.36419.02048.712.03274,1.04754-.01226.28645-.02045.56879-.02865.83069-.21686-.34784-.43784-.69974-.6588-1.05574-.26189-.39284-.52785-.78975-.79384-1.18668-.54834-.78975-1.113-1.5795-1.70225-2.35289-.58518-.77336-1.18669-1.53449-1.78819-2.271-.60563-.73655-1.20714-1.45265-1.79639-2.14009-1.18668-1.37081-2.32833-2.61478-3.32268-3.66233-.99844-1.04754-1.84548-1.90684-2.43882-2.50019-.45421-.44194-.7611-.74064-.88795-.8593.11456.13092.4051.45011.82656.9166.56062.63015,1.34627,1.53449,2.25878,2.65568a87.46477,87.46477,0,0,1,6.21571,8.51131c.51149.802.99844,1.62043,1.469,2.43473.225.4051.4501.8102.67106,1.2112.20869.4092.41329.81023.61789,1.203.31919.65063.6138,1.28488.87569,1.90277-.01229.045-.01636.06546-.01636.06546l.0491.01229a25.06926,25.06926,0,0,1,.89615,2.447c.2005.65883.33961,1.26444.4501,1.80048.04091.27006.08185.51969.11866.74884.02455.16776.03274.32326.04913.46647a57.57169,57.57169,0,0,0-21.96165,6.04795c-.89614-.03684-1.70225-.04091-2.39789-.03274a30.65237,30.65237,0,0,0-3.47408.21686c-14.70246,2.14421-20.92636,10.51638-23.5575,17.16583a33.16612,33.16612,0,0,0-2.226,13.10251,6.40051,6.40051,0,0,0-.96161.67109,5.97061,5.97061,0,0,0-2.08692,4.44388l-.51966,27.86634,1.03935.99027.36826.34781c.03275,5.48326.31919,52.27088.04913,63.1269-.01638.64244-.03274,1.15393-.0532,1.53039-.17188,3.33087-.81023,4.84488-1.244,5.40958l-25.66895-28.66837c1.8823-1.86185,1.57133-2.803,1.45674-3.13854-.16776-.5115-.31509-.95344-5.13133-3.48227-1.78-.933-3.80555-1.9355-4.628-2.32015a15.443,15.443,0,0,1-.58924-2.61068,8.38986,8.38986,0,0,0,3.1508-6.28117c.14733-2.56977-.69562-5.36867-1.92321-6.37121a1.23841,1.23841,0,0,1-.28235-.28234,2.91373,2.91373,0,0,1-.02864-.3069,6.30038,6.30038,0,0,0-.90844-2.979c-1.49765-2.72524-5.52006-2.41835-7.11592-2.17284a6.79656,6.79656,0,0,0-.64654-.42555,18.44877,18.44877,0,0,0-5.12316-1.75548v-1.6736l-.08184-.21279a5.0938,5.0938,0,0,0-4.78759-3.64594c-3.50273-.03274-7.27964,3.28175-8.50723,6.28117-1.16621,2.85622.14323,5.49142,1.48948,7.23051a6.44722,6.44722,0,0,0-3.71142,1.67363,5.383,5.383,0,0,0-1.40764,2.35289c-2.53294-.52376-6.14206-.34781-7.562,2.96258-1.3258,3.08944,1.40764,6.7313,4.051,10.25449.76519,1.0189,1.54268,2.06237,2.136,2.99533a7.39519,7.39519,0,0,1,.9657,1.96414c.37238,1.48948.24553,1.57542-.72429,2.24242a8.84641,8.84641,0,0,0-2.72524,2.67614c-.36829.56879-.68335,1.03119-.94934,1.424-1.38719,2.03372-1.71454,2.63114-1.71454,5.70012a7.737,7.737,0,0,0,2.22194,5.4587l-.11456.27006-12.50508,29.6341a11.6823,11.6823,0,0,1-.69973-1.54269,6.647,6.647,0,0,0-1.85365-2.86028,4.40749,4.40749,0,0,0-.83888-.56879c-1.113-3.294-6.78857-25.95539-10.5941-41.43124a3.68434,3.68434,0,0,0,.2987-.42965,5.93132,5.93132,0,0,0,.69565-3.76463c-.0532-.28234-1.35445-6.9359-2.312-10.00488a10.58435,10.58435,0,0,0-4.28838-5.27046c-.04094-.1023-.09-.22506-.14731-.36417A59.63555,59.63555,0,0,0,225.685,326.986a58.62121,58.62121,0,0,0-13.04522-8.29853c.33555.12275.67109.2496,1.00254.36829.69564.26186,1.38309.5074,2.0337.78974.65064.27826,1.29718.52786,1.90278.802q.9207.41127,1.77183.78567c.56879.24961,1.10074.5115,1.61634.74882.5074.24963,1.0107.45013,1.46081.68337.90024.4583,1.72273.80611,2.36927,1.14166,1.22759.61789,1.99279.94934,2.0828.99025-.07365-.06956-.68745-.622-1.76771-1.49356-.28235-.23734-.6138-.47468-.978-.73248-.3601-.26187-.75293-.54012-1.17849-.83066-.847-.58924-1.84958-1.1703-2.94213-1.81683-.5647-.29871-1.14575-.60561-1.75138-.92479-.18-.09821-.36826-.18824-.5565-.27826-.44194-.20869-.90024-.40919-1.35854-.63015-.6547-.31509-1.34625-.59744-2.05415-.89614-.35193-.14733-.70793-.29464-1.068-.446-.36416-.135-.73655-.27416-1.10481-.41739-.37238-.13911-.74884-.27825-1.12529-.42146l-1.15394-.39284c-.38875-.13094-.78158-.26187-1.17033-.39281-.39691-.11869-.79791-.23325-1.19894-.35193-.79794-.24961-1.61224-.4583-2.43064-.667-.81839-.22506-1.649-.39691-2.47563-.58923-.82659-.18823-1.66544-.33554-2.4961-.49923-.83478-.135-1.66544-.27825-2.492-.39284-1.65725-.22505-3.294-.41327-4.88172-.52376-1.59179-.11458-3.13038-.16778-4.59119-.18-1.46493-.02046-2.84393.03681-4.12062.0982-.70383.04091-1.37083.09-2.00508.13914.67109-.14324,1.3749-.27418,2.09919-.38465.36419-.06549.73245-.11049,1.10893-.1555s.757-.1023,1.14165-.13914c.77339-.06136,1.56314-.1473,2.37334-.16366a47.1759,47.1759,0,0,1,4.97993.03681c1.69818.13505,3.42091.31509,5.12726.6138l1.28079.22505c.42555.07775.847.18415,1.27259.27418.42149.09411.843.18412,1.26443.27826.41737.11456.83066.22505,1.244.33554s.82658.22505,1.23578.33555c.4051.12685.8102.2537,1.21121.37645.401.12685.79794.2496,1.19487.37236q.58923.21485,1.16621.41739c1.55084.53195,3.00759,1.158,4.39477,1.73909,1.36264.63425,2.668,1.20713,3.84237,1.80455.29461.14733.58515.28644.87159.42148s.5647.266.83476.39691c.532.28235,1.04345.536,1.52632.77339.48285.24144.933.46649,1.35851.6629.4133.21279.79794.4051,1.14168.58105,1.29715.65883,2.10735,1.01483,2.20558,1.05574-.07775-.07365-.72838-.6629-1.87-1.5795-.60563-.49923-1.36673-1.068-2.271-1.67363-.45014-.311-.92479-.64241-1.44039-.97389-.51969-.31916-1.068-.6588-1.64907-.99434-1.14575-.70381-2.45929-1.334-3.83009-2.0378-1.39944-.64654-2.86847-1.34625-4.43978-1.956-.39284-.1555-.78975-.31509-1.18668-.47468-.401-.14321-.8102-.28645-1.2194-.43375-.4092-.14321-.82249-.28644-1.23579-.43375-.42146-.12685-.84294-.2578-1.2685-.38465s-.85523-.2537-1.28079-.38464c-.43375-.11049-.87159-.221-1.30534-.32736-.43784-.11049-.87159-.22915-1.31353-.32325l-1.32989-.27418c-1.30125-.27416-2.623-.46649-3.93238-.6179h.577a14.5633,14.5633,0,0,1,1.4813.0573c.47468.03274.93707.06548,1.38309.0982.88388.06549,1.70227.09,2.41427.21689a7.69586,7.69586,0,0,0,1.89459.045,5.50125,5.50125,0,0,0,1.76773-.4583,5.066,5.066,0,0,0-1.50584-1.0107,8.18654,8.18654,0,0,0-1.86187-.58925c-.73245-.17188-1.5754-.24553-2.492-.36419-.4583-.0532-.937-.11459-1.43219-.17185a15.23645,15.23645,0,0,0-1.53449-.14733c-1.05983-.04911-2.17693-.12276-3.335-.15957-1.16211.03681-2.36105.06955-3.58048.10637-.6056.05729-1.2194.11868-1.83319.176-.6138.06958-1.23579.1023-1.84549.20869-.61379.1023-1.22349.2087-1.83319.3151-.3069.05319-.6097.10639-.91253.15959-.3028.05729-.60151.13911-.90022.20869-.59334.14321-1.18258.28642-1.76773.42556-.58515.14321-1.14168.34374-1.70228.5115-1.12119.32325-2.17283.74474-3.17535,1.12119-.49923.18415-.96572.42556-1.43219.622-.45832.21277-.90843.39691-1.32172.622-.41737.21279-.8143.41739-1.19485.6138-.37646.2046-.72429.41739-1.05574.60563-.6629.37236-1.2194.7611-1.6777,1.05981-.4542.32328-.80613.57288-1.05983.77748-.0491.03684-.09411.07365-.131.1023q-2.05.38055-4.137.85523-1.8966.42963-3.73188.91251c-.11456.00409-.29461.00409-.54014.00409-.44194.0041-1.08436.02455-1.90275.06137-.81433.04093-1.80048.10639-2.92987.21688-1.12939.1023-2.39789.2537-3.781.44194-1.379.19641-2.87257.43782-4.43978.74882-.78568.15549-1.58769.32735-2.40608.52378-.8184.18-1.64908.4092-2.492.63016-.847.225-1.69408.48285-2.55748.74064-.85114.29054-1.7268.54834-2.582.88388-.43375.15957-.8634.31917-1.29715.47876-.43374.16776-.85933.3519-1.29307.52785-.8634.34374-1.71045.74475-2.55749,1.13758-.85521.38465-1.6736.847-2.50019,1.2726-.8102.46649-1.62043.92479-2.402,1.41583-.38465.25371-.7693.50741-1.15394.757l-.56879.37645-.55241.40511c-.72838.54014-1.45674,1.06392-2.11964,1.645-.33555.28235-.67109.56469-1.00254.84294-.32326.29054-.62606.59334-.933.888-.30282.29464-.60563.58518-.90433.87569-.27825.3069-.55243.6097-.82659.91253-.27006.29871-.53605.59332-.79794.88795-.24141.3069-.48285.6138-.71609.9125s-.4624.59335-.68745.88388c-.221.29462-.4092.60151-.6097.89205-.19231.29461-.38465.58106-.56879.8634-.09411.13914-.18822.27825-.27825.41739-.08185.14321-.1596.28642-.23732.42556q-.47264.8409-.888,1.59178a17.35839,17.35839,0,0,0-1.12529,2.73344,13.04068,13.04068,0,0,0-.32326,1.89868,6.60057,6.60057,0,0,0-.02864.68745,6.77837,6.77837,0,0,0,.43784-.54424,13.3104,13.3104,0,0,0,.99844-1.5795c.20051-.34373.44194-.70793.667-1.12529.11456-.20869.225-.42558.33961-.65063a7.25448,7.25448,0,0,1,.37239-.69972c.28234-.46649.58105-.96162.90024-1.48129.07774-.13094.15956-.26189.24141-.39693.09-.12685.18414-.2537.27418-.38465q.28231-.39283.577-.79794c.1964-.27006.38464-.55241.6056-.82249.22508-.266.45013-.54012.68338-.8143s.46646-.5565.7079-.83885c.2578-.27006.52376-.54014.78975-.8143s.53605-.5524.8102-.83068c.29464-.266.58925-.52786.892-.79792q.4481-.399.90843-.81022c.32326-.2537.64654-.5115.978-.7693.63835-.536,1.34625-1.0107,2.05415-1.50174l.532-.37236.55241-.34374,1.1171-.68745c.757-.45011,1.54677-.8634,2.32833-1.289l1.203-.58515c.401-.2005.802-.401,1.21533-.57286.82249-.3601,1.63679-.72838,2.47564-1.03938.41739-.16366.83066-.33554,1.248-.48285.42148-.1473.83885-.29461,1.25624-.43784.83068-.3069,1.68179-.536,2.50428-.80611.83476-.23734,1.65725-.47875,2.47564-.68745.4051-.1023.81023-.2046,1.20714-.3028-.9698.47056-2.01324.99435-3.10579,1.559-.33555.09411-.68338.19231-1.03938.29871-.90841.27415-1.89459.58105-2.92168.95343-1.023.37236-2.091.80611-3.18354,1.28486-1.08438.491-2.20148,1.01483-3.29813,1.62863-1.10074.59331-2.18922,1.2685-3.25313,1.96824a35.9629,35.9629,0,0,0-3.04033,2.30785c-.23734.20053-.47468.40513-.712.60973-.22915.21276-.4542.42555-.67928.63834-.4583.4133-.87976.85931-1.293,1.29715a26.25241,26.25241,0,0,0-2.19739,2.67205c-.33964.43377-.6138.89614-.90024,1.32582-.13914.221-.28644.42555-.4092.64651q-.18412.32534-.356.63835c-.491.82659-.83068,1.64088-1.1703,2.34062a11.34709,11.34709,0,0,0-.58107,1.9314,7.07369,7.07369,0,0,0-.06547,1.79229,7.61166,7.61166,0,0,0,1.01481-1.44036,15.15646,15.15646,0,0,0,.92479-1.68182c.356-.64244.71609-1.39126,1.22349-2.14009.07366-.11457.14324-.22915.221-.34781a7.60623,7.60623,0,0,0-.4092,1.1703,5.57142,5.57142,0,0,0-.176,1.34625c.02045.31509.04091.47468.04091.47468s.05729-.1514.17185-.43375a8.69254,8.69254,0,0,1,.6097-1.10893,12.91939,12.91939,0,0,1,1.17849-1.52221c.491-.55652,1.08029-1.15393,1.75548-1.78411.67516-.622,1.4199-1.29306,2.24649-1.96415s1.73089-1.35034,2.69252-2.01734c.49921-.3519,1.0148-.69564,1.54266-1.03935A56.98407,56.98407,0,0,0,112.501,353.46928a60.89326,60.89326,0,0,0-4.52163,26.70423q.02454.34373.04911.577a8.76505,8.76505,0,0,0-1.40357,5.692,57.09064,57.09064,0,0,0,1.50994,9.44835,11.44944,11.44944,0,0,0,2.85212,4.4439c.311.30281.581.54015.78565.70381l8.08165,28.51287-.09411.74475-.9125,7.296a2.84934,2.84934,0,0,1-.18.52786,1.66218,1.66218,0,0,1-.32328.48285c-1.05981,1.08848-3.28175.12685-3.38405.08184L78.04659,423.67529a10.11129,10.11129,0,0,0-1.56723-3.79327c-2.11554-3.3595-8.72409-4.08788-10.2463-4.08788a3.18958,3.18958,0,0,1-2.19329-1.30125c-.31509-1.19075-1.34627-4.894-2.20967-6.142-1.30534-1.89049-.888-2.46745-.34374-2.89713l.15143-.13911a8.45823,8.45823,0,0,0,1.39944-7.88524,7.89919,7.89919,0,0,0-5.67556-5.51188,7.09722,7.09722,0,0,0-5.9211.71609,8.80605,8.80605,0,0,0-3.69914,6.06431c-.49923,3.16719.26189,4.47662.933,5.63464a8.07007,8.07007,0,0,1,.47468.91252,1.77389,1.77389,0,0,1,.06956,1.4813c-.03274.05319-.0982.1432-.3601.1432-.51966,0-1.91913-1.1621-2.672-1.78819a10.79018,10.79018,0,0,0-2.43883-1.71863,10.222,10.222,0,0,1-1.19075-1.289c-1.84139-2.17693-4.92676-5.8188-9.27243-4.75487a7.60182,7.60182,0,0,0-5.55281,4.50117,8.545,8.545,0,0,0,1.21123,7.80747A8.73048,8.73048,0,0,0,34.774,413.7809c.14731.03681.29054.07365.42146.11049a7.36943,7.36943,0,0,0-3.80143,3.99784,5.22453,5.22453,0,0,0,.41329,4.85717,8.90372,8.90372,0,0,0,6.12977,3.85466,11.02433,11.02433,0,0,1,3.35952,1.34215,36.78919,36.78919,0,0,0,6.7845,2.79073,14.00608,14.00608,0,0,0,7.55377.11459,3.63637,3.63637,0,0,1,1.6327-.18,13.37468,13.37468,0,0,1,2.10328,2.45519c1.6,2.136,3.41681,4.55844,5.52416,5.19678,2.77028.847,5.39732-1.27669,6.62491-2.492,4.72213,2.50019,27.37941,14.37921,37.9367,17.49729,10.53683,3.10579,13.97408,8.06936,14.34646,9.55065.27006,1.25624,1.54676,18.83947,2.37744,30.86986a8.65172,8.65172,0,0,0-4.50117,6.95226v.0532a33.75039,33.75039,0,0,0,7.296,21.50741,42.28416,42.28416,0,0,0,13.38074,10.83147,65.96,65.96,0,0,0,19.64967,6.63717c.03684.12685.07775.24961.11866.37648a31.26691,31.26691,0,0,0,5.6674,9.75116l-.02046.44194-.16369,3.159a8.06994,8.06994,0,0,0-5.14361,4.88175,5.96723,5.96723,0,0,0,.64654,5.34412c.38055.52785,1.53858,2.1278,11.11788,1.48946,4.29658-.29052,9.7348-1.05572,11.82582-1.96824a4.08721,4.08721,0,0,0,2.36105-2.48791,6.79907,6.79907,0,0,0-.74472-4.8981,38.02931,38.02931,0,0,1-.79384-5.426c-.0041-.1023-.0041-.20051-.0041-.29052,4.051-1.93552,5.62237-7.607,6.11751-10.009,2.57384.01229,5.49552-.18414,6.78448-.28234h.01638c.176-.0082.356-.01636.536-.02455-.04094,4.46433,2.20555,6.719,3.46179,7.62744-.16366,1.19485-.47056,3.5641-.667,6.04793-.50331,6.39985.14733,8.06529.96572,8.75683,4.11243,4.39068,18.84763,3.89147,24.9774,2.983l.06139-.01226c6.052-1.21943,7.00546-4.12062,7.03411-5.741.06546-3.67049-4.48481-7.77475-10.23813-9.31741a3.26085,3.26085,0,0,1,.135-1.17442c.01227-.045.02046-.09.03272-.13092,3.18357-1.244,4.759-6.46125,6.04386-10.71688.16776-.56879.33144-1.113.491-1.60817.03681-.11866.07365-.22915.11046-.33962,15.36129-3.71142,28.93846-14.76794,33.28823-23.46748a23.97732,23.97732,0,0,0,2.091-6.51442,52.56609,52.56609,0,0,0,.29054-13.23753c-.09-1.20713-.16369-2.25058-.16369-3.01171a9.47667,9.47667,0,0,0-2.82754-6.62491,3.48347,3.48347,0,0,0-.16369-1.04754v-.00407c.13095-3.94877.54014-15.2999,1.19485-25.37434.38465-5.9743.85523-11.50253,1.39947-14.78021,1.54266-9.26833,16.28606-47.78609,18.61029-53.834.03684-.09413.07366-.18414.1023-.26189,1.08029-.37646,3.53138-1.25215,5.46278-2.1401,2.43882-1.12529,1.81684-4.81626,1.32172-7.78294-.11868-.69155-.266-1.56723-.311-2.11964a2.067,2.067,0,0,1,.0041-.46649,14.60469,14.60469,0,0,1,2.30378-2.623,30.02251,30.02251,0,0,0,2.19329-2.34062c.4583.757,1.03935,1.85368,1.50584,2.73753,1.9396,3.65,2.98714,5.426,4.19428,5.90882a3.66447,3.66447,0,0,0,3.99787-1.113c5.86787,6.097,36.44721,38.35,39.27885,50.99825,2.848,12.73015-1.30534,50.27811-2.15238,57.58228-1.7309.13911-3.29813,1.60405-4.35387,2.88074a15.49923,15.49923,0,0,0-1.32989,1.87l-.11866.20051-.03684.22915c-.06136.401-1.5181,9.90258,1.92733,22.72684a18.89183,18.89183,0,0,0,1.09255,3.01168c3.21222,6.99727,10.4018,12.27593,16.5234,15.97506,2.09509,1.26853,4.06742,2.34879,5.7124,3.249,1.33806.73655,2.4961,1.37083,3.19583,1.82913,2.46336,1.604,2.582,3.44134,2.73344,5.77377a14.15829,14.15829,0,0,0,.57289,3.65,5.995,5.995,0,0,0,2.82754,3.294c-4.17382,1.07619-7.01365,2.87667-8.47039,5.381-1.77183,3.04443-1.08436,6.32211-.19231,8.53585a4.71641,4.71641,0,0,0,4.03058,2.92987,76.736,76.736,0,0,0,9.08829-.12685c9.92713-.34783,18.02514-3.41272,20.02612-5.29092a2.50048,2.50048,0,0,0,1.45264-2.81528c-1.23578-5.90881-2.046-8.46629-2.55338-9.63662a4.64614,4.64614,0,0,0,3.12625-3.92828,57.05788,57.05788,0,0,0,.51559-8.17986h1.90278l-.73655,6.53487a7.23662,7.23662,0,0,0,3.20809,6.82544,8.92406,8.92406,0,0,0-.67926,2.81935c-.19233,2.32017-.01228,9.50975-.00409,9.81664l.02864,1.068,1.05981.11866a173.23131,173.23131,0,0,1,17.50548,3.01168l.08594.01639a74.50966,74.50966,0,0,0,12.13271,1.27669c5.0372,0,6.50211-1.12529,6.86635-2.02144l.049-.15549c2.49205-9.57933-7.6192-13.23346-10.94191-14.4365-.33145-.11866-.61789-.221-.757-.28235a3.54332,3.54332,0,0,1-1.3176-1.80045c-.0041-.0041-.0041-.00819-.0041-.01638.757-.221,1.29305-.39691,1.555-.48695.03683-.01226.06548-.02046.09-.02862,1.555-.48288,2.05416-.98209,2.32014-1.41993a2.50307,2.50307,0,0,0,.43375-1.79638,43.687,43.687,0,0,1,.11866-4.83672c.29873-4.80807,8.19621-6.90316,9.11281-7.12821.05325-.01226.08187-.02046.086-.02046l.11453-.02455.1064-.045c16.27379-7.08321,18.30749-12.56237,20.10392-17.395.24955-.67109.48282-1.30534.757-1.93959a11.78579,11.78579,0,0,0,.41329-1.11713c1.79643-5.54871,1.43629-15.173,1.23578-20.509l-.03272-.92479a8.278,8.278,0,0,0-3.98967-7.18551c-.1555-.0941-.29871-.17185-.43372-.24141-.38058-5.19681-2.52887-36.59452.03271-49.05049,2.4961-12.15317,33.37-34.168,38.61187-37.82621.08182-.0573.15959-.1105.22917-.1596,1.46491.536,5.025,1.75138,7.04227,1.75138,3.2081,0,3.59687-4.83262,3.83009-7.71748.01633-.21686.03271-.41737.0491-.59332a3.201,3.201,0,0,1,1.16215.16367,10.14633,10.14633,0,0,0,2.42242,4.493c-.13916,1.61224-.47059,6.03976-.11868,7.63155a4.08285,4.08285,0,0,0,2.61068,2.63113,8.8203,8.8203,0,0,0,1.13758.39284c1.09667,5.80651,7.64383,39.9704,12.059,51.63253,4.56665,12.04677,6.318,43.46087,6.37937,44.59842,0,.1023.0041.37239.02048.78159a47.19063,47.19063,0,0,0,4.41526,17.53409,36.01025,36.01025,0,0,0,3.39226,5.66328c4.95532,6.74359,13.40531,12.97976,27.73536,13.24165,1.334.43785,4.46026,3.52319,5.45049,5.20908a7.785,7.785,0,0,0,3.86695,3.31449,31.83457,31.83457,0,0,0-2.37332,2.77437,5.54354,5.54354,0,0,0-3.97744,3.40452,5.03447,5.03447,0,0,0,1.10077,5.45868c3.59277,3.84647,16.953-.8634,18.30749-1.35851l3.26129-.58108a3.61678,3.61678,0,0,0,2.91349-4.19427,36.83936,36.83936,0,0,0-1.6286-5.61828,5.70181,5.70181,0,0,0,4.23518-5.33592l.06953-2.56158c1.37495-.06549,2.76209-.12685,4.047-.18,2.2833-.09,4.25152-.14731,5.27861-.13914a22.07052,22.07052,0,0,0,3.74012,5.88836l.10634.12275.07778.0532a50.2678,50.2678,0,0,1,2.91753,4.19018c-1.334,2.76208-.90841,6.4776-.5074,8.55223a2.31075,2.31075,0,0,0,1.91506,1.84139l9.10465,1.39945c1.1621.21279,11.40023,1.92733,13.839-2.72524,1.7309-3.31042-2.46742-6.5881-6.17068-9.4852-.4583-.356-.90021-.70383-1.30127-1.02709a1.80925,1.80925,0,0,1-.49511-.58514c-.00819-.02456-.02048-.04911-.02862-.06959a9.71076,9.71076,0,0,0,3.43726-6.47757l.25775-4.894q1.36269-.26394,2.69255-.54424l-.01638-.08592c1.98465-.50742,4.77535-1.30534,8.35992-2.537a41.79138,41.79138,0,0,0,20.97547-15.885q.74882-1.08029,1.41581-2.19738a.12261.12261,0,0,0,.02042-.02865,41.05931,41.05931,0,0,0,5.89251-23.001c-.02048-.52376-.04915-.96979-.07778-1.3176-.04091-.58515-.08187-.90434-.08187-.90843-.01633-.13095-1.334-13.14342-1.70632-18.197a12.46332,12.46332,0,0,1,2.18515-7.8525l31.22174-34.08614.1023-.11049c1.23573.82249,3.21219,1.98053,4.56665,1.98053,1.66542,0,3.31449-2.357,7.341-10.49593l.4051-.81839c.0573-.11866.11869-.23734.17188-.34781a6.80759,6.80759,0,0,0,3.45366-.35193,9.27017,9.27017,0,0,0,5.8883-6.04792c5.23365-.2619,9.53842-2.45929,11.10972-5.73286A5.73759,5.73759,0,0,0,742.06353,403.15812Z" transform="translate(-27.25229 -213)"/>
  <path class="cls-1" d="M460.57251,488.885v.14731l.176.02048C460.69119,488.99547,460.6339,488.93818,460.57251,488.885Z" transform="translate(-27.25229 -213)"/>
  <path class="cls-1" d="M344.01673,489.23689a3.45421,3.45421,0,0,0-.4051.22917,5.12321,5.12321,0,0,0,.3069.47056Z" transform="translate(-27.25229 -213)"/>
  <path class="cls-1" d="M583.70412,550.20323h.03682l-.0082-.31918Z" transform="translate(-27.25229 -213)"/>
  <path class="cls-2" d="M602.18759,461.9025c-.22918.06958-.442.13914-.63428.2046l-.52378.176-.47873-.27415c-.27009-.1555-.54017-.3028-.80611-.446a20.98084,20.98084,0,0,0-17.77556-.978,54.9638,54.9638,0,0,0,16.50291,4.20244c.2046.02458.40511.045.60561.06958h.00409q1.23989.12888,2.4429.18414c6.74771.29871,12.58282-1.21123,17.44414-4.52572C614.14433,458.89491,605.92761,460.74449,602.18759,461.9025Z" transform="translate(-27.25229 -213)"/>
  <path class="cls-3" d="M554.422,476.02391c0-2.07463-1.00256-3.51909-1.90278-3.51909-.89617,0-1.90278,1.44446-1.90278,3.51909,0,2.07054,1.00661,3.515,1.90278,3.515C553.41942,479.53893,554.422,478.09445,554.422,476.02391Z" transform="translate(-27.25229 -213)"/>
  <g>
    <path class="cls-3" d="M439.3393,457.34c-1.13758,0-2.09923,1.37489-2.09923,2.9994,0,1.62862.96165,2.99942,2.09923,2.99942s2.10323-1.3708,2.10323-2.99942C441.44253,458.71486,440.47688,457.34,439.3393,457.34Z" transform="translate(-27.25229 -213)"/>
    <ellipse class="cls-3" cx="338.48056" cy="245.40797" rx="2.61887" ry="2.99942"/>
    <path class="cls-3" d="M155.31125,472.60712c.8675,0,1.6-1.05164,1.6-2.29562,0-1.248-.73245-2.29968-1.6-2.29968s-1.604,1.05164-1.604,2.29968C153.70721,471.55548,154.44376,472.60712,155.31125,472.60712Z" transform="translate(-27.25229 -213)"/>
    <path class="cls-3" d="M242.83857,463.62114a2.29764,2.29764,0,1,0-2.29969-2.29559A2.3,2.3,0,0,0,242.83857,463.62114Z" transform="translate(-27.25229 -213)"/>
    <path class="cls-3" d="M224.76023,356.837q0,1.90278-.16776,3.76462c13.90862.65473,19.42459,3.41681,21.56471,5.22136a3.91617,3.91617,0,0,0,.09-1.3749c-.09411-.47468-1.35035-6.87451-2.2383-9.71434a8.42108,8.42108,0,0,0-3.50273-4.08381l-.00819-.00407c-2.77027-1.20713-11.81353-2.54931-16.78938-3.18766A42.15444,42.15444,0,0,1,224.76023,356.837Z" transform="translate(-27.25229 -213)"/>
    <path class="cls-3" d="M130.36657,383.56984a154.07976,154.07976,0,0,1,15.304-6.35892,41.76111,41.76111,0,0,1-4.7467-13.81451c-14.03137,4.65667-29.24123,17.27631-30.71026,18.51619-.0041,0-.0041,0-.0082.00819a6.30064,6.30064,0,0,0-1.13755,4.27609,52.98825,52.98825,0,0,0,1.39535,8.92053,8.51027,8.51027,0,0,0,1.72273,2.90938C114.03551,393.41513,120.13254,388.558,130.36657,383.56984Z" transform="translate(-27.25229 -213)"/>
    <path class="cls-3" d="M74.40063,421.18736c-1.19485-1.89866-6.02337-2.938-8.16757-2.938-2.623,0-4.27611-2.43473-4.34567-2.5411l-.11459-.17188-.05319-.2005a29.46683,29.46683,0,0,0-1.90685-5.58963c-2.20558-3.18356-1.21124-5.09041.06136-6.14205a6.08452,6.08452,0,0,0,.81432-5.4628,5.47909,5.47909,0,0,0-3.96922-3.85464,4.69506,4.69506,0,0,0-3.961.41739,6.33123,6.33123,0,0,0-2.59023,4.37842,4.92532,4.92532,0,0,0,.63015,4.0183,9.95164,9.95164,0,0,1,.622,1.20713,4.05645,4.05645,0,0,1-.16369,3.78508,2.78671,2.78671,0,0,1-2.39789,1.23169c-1.40354,0-2.848-1.19895-4.23928-2.357a10.65518,10.65518,0,0,0-1.81683-1.33806,6.45325,6.45325,0,0,1-2.11964-1.96824c-1.66544-1.96824-3.94467-4.66486-6.81315-3.957a5.22983,5.22983,0,0,0-3.85463,3.01172,6.166,6.166,0,0,0,.978,5.561,6.34078,6.34078,0,0,0,4.37842,3.12218,3.8624,3.8624,0,0,1,2.537,1.41584,1.85254,1.85254,0,0,1,.34373,1.5672c-.21688.83888-.95343,1.203-1.66543,1.559a5.172,5.172,0,0,0-2.91758,2.86848,2.78544,2.78544,0,0,0,.22915,2.65162,6.61175,6.61175,0,0,0,4.23928,2.6925,12.30328,12.30328,0,0,1,4.26795,1.59588,34.49146,34.49146,0,0,0,6.34663,2.62294,11.5059,11.5059,0,0,0,6.34665.07775,4.87432,4.87432,0,0,1,3.19993-.01226c.95344.44192,1.87,1.66544,3.03217,3.21219,1.244,1.65317,2.9421,3.916,4.27609,4.32112,1.72683.52788,4.03878-1.65315,4.714-2.45928l.63835-.76519.07365.04093c1.735-2.02144,3.79737-6.539,4.60757-8.5154A7.10612,7.10612,0,0,0,74.40063,421.18736Zm-28.70109.356A3.9377,3.9377,0,0,1,44.918,422.771a4.11923,4.11923,0,0,1-1.02709.80613,5.41965,5.41965,0,0,1-1.04345.43785,5.60914,5.60914,0,0,1-.95341.18,4.5324,4.5324,0,0,1-.802.02456,3.66055,3.66055,0,0,1-.61789-.06139c-.16776-.02456-.3069-.06137-.39691-.08185s-.13914-.03681-.13914-.03681.03684-.03275.1064-.09821c.07365-.06139.17186-.15959.3069-.25779.13094-.09821.28644-.22915.46239-.36829.17595-.135.37236-.28235.57286-.446.2087-.15143.4092-.33555.62609-.50333.2046-.18005.41329-.36419.60151-.55241.08594-.09413.176-.19233.266-.28644.06547-.1064.1555-.19641.21687-.29461a2.68158,2.68158,0,0,0,.31509-.577,2.94625,2.94625,0,0,0,.15959-.622,3.87135,3.87135,0,0,0,.01636-.72836,7.94591,7.94591,0,0,0-.27825-1.53039c-.06137-.24554-.13095-.4665-.19641-.67109-.06956-.20051-.12275-.38875-.18414-.532-.06546-.1473-.1064-.266-.1514-.34373l-.07775-.12276a.68277.68277,0,0,1,.1473,0,1.7937,1.7937,0,0,1,.4133.11049,3.78248,3.78248,0,0,1,1.23988.78975,4.54351,4.54351,0,0,1,1.19484,1.78,3.82278,3.82278,0,0,1,.24961,1.30944A3.89681,3.89681,0,0,1,45.69954,421.54336Z" transform="translate(-27.25229 -213)"/>
    <path class="cls-3" d="M185.35452,556.70946l-.04091-.19232a40.96794,40.96794,0,0,1-.87159-5.74514,53.4745,53.4745,0,0,1-9.77983,1.12939,15.74146,15.74146,0,0,1-4.48888-.53605l-.20051,3.92421-.83477.24551a6.08514,6.08514,0,0,0-4.34977,3.59277,3.49318,3.49318,0,0,0,.29463,3.08943c1.69,1.41174,16.60931.2087,19.98928-1.26443a1.59073,1.59073,0,0,0,1.00664-.99435,4.63235,4.63235,0,0,0-.62608-3.08124Z" transform="translate(-27.25229 -213)"/>
    <path class="cls-3" d="M224.49836,552.30649l-.25372-.26187a3.20248,3.20248,0,0,1-.74882-2.75392,55.64283,55.64283,0,0,1-6.64945.40511,39.51212,39.51212,0,0,1-10.71279-1.34216c-.78158,5.741-.97389,11.036-.4092,12.02632l.03272.02455.08594.09411c2.76618,3.09353,15.1485,3.40862,22.82912,2.27513,1.87822-.38055,4.99631-1.3217,5.03314-3.36768.04091-2.30379-3.736-5.79016-8.855-7.01365Z" transform="translate(-27.25229 -213)"/>
    <path class="cls-3" d="M383.271,553.42361a22.928,22.928,0,0,1-5.43-.6097l-.18.16367-.38464.05319c-5.516.74475-9.05554,2.3979-10.52457,4.91857-1.2726,2.18919-.72019,4.68122-.03682,6.38347a2.25985,2.25985,0,0,0,1.92324,1.39944,73.01388,73.01388,0,0,0,8.80181-.135c10.01308-.34784,17.45638-3.605,18.43844-4.583l.22915-.37645.48287-.12278a.058.058,0,0,0,.045-.06546,55.96709,55.96709,0,0,0-2.42654-9.2315A28.98863,28.98863,0,0,1,383.271,553.42361Z" transform="translate(-27.25229 -213)"/>
    <path class="cls-3" d="M426.26951,551.95049a2.36861,2.36861,0,0,1-.11049-.32736,52.75863,52.75863,0,0,1-12.41914,1.67773,28.07072,28.07072,0,0,1-6.97271-.79794,6.48065,6.48065,0,0,0-.49923,2.0828c-.13912,1.68182-.06546,6.3753-.02046,8.49085a168.89141,168.89141,0,0,1,16.70344,2.92577c12.53782,2.13193,15.68457.92888,16.29837.57286,1.44852-6.42438-4.69353-9.46064-9.48115-11.18744-.4051-.14731-.69971-.2537-.92069-.35191A5.517,5.517,0,0,1,426.26951,551.95049Z" transform="translate(-27.25229 -213)"/>
    <path class="cls-3" d="M458.8539,317.38216c.14731,1.18258.39691,7.386.5115,10.49183,1.63269-3.99787.757-11.789.22917-14.67791l-.04915-.266.06958-.266c.49107-1.86593.37239-12.66056.12273-16.71573a28.00992,28.00992,0,0,1-6.15429,15.84414C456.08363,313.65028,458.66978,315.89267,458.8539,317.38216Z" transform="translate(-27.25229 -213)"/>
    <path class="cls-3" d="M350.77668,310.99869a33.59675,33.59675,0,0,1-4.17382-14.55516,3.54042,3.54042,0,0,0-.76929,2.14419l-.41737,22.41585.54012-2.85621C346.13637,317.5172,347.59311,312.71732,350.77668,310.99869Z" transform="translate(-27.25229 -213)"/>
    <path class="cls-3" d="M280.82028,351.28008c0,.02455.00409.045.00409.06546.11866,1.51814.58106,4.07972,1.89869,5.22956a2.58287,2.58287,0,0,0,2.16054.56469,2.28254,2.28254,0,0,0,1.95188-1.70227c.94115-2.63933-.2455-6.80905-.92479-8.0571-1.95185-.131-3.36768.22505-4.22292,1.05164a3.10624,3.10624,0,0,0-.89614,2.0869Z" transform="translate(-27.25229 -213)"/>
    <path class="cls-3" d="M290.69012,333.93829h-.02865c-2.1851,0-5.18043,2.29969-6.183,4.75488-1.12529,2.74979,1.66134,5.5078,2.54113,6.28526a1.30207,1.30207,0,0,1,.27825.34374c.05729-.0491.11459-.1064.18-.16778.07365-.07775.1514-.1596.23324-.24142a30.56457,30.56457,0,0,0,2.29559-2.95442c.40511-.57286.81021-1.14574,1.19078-1.68589.38462-.536.74472-1.03935,1.05162-1.4731.1514-.21688.3069-.4092.42968-.58108.13092-.176.24141-.32735.33552-.4501.04093-.0491.07774-.09821.11049-.13914v-1.81681A2.6093,2.6093,0,0,0,290.69012,333.93829Z" transform="translate(-27.25229 -213)"/>
    <path class="cls-3" d="M298.36666,347.71187c.94935,2.85621,5.426,7.341,8.47859,8.02028a5.94666,5.94666,0,0,0,2.30785-4.493,6.89164,6.89164,0,0,0-1.023-4.403,2.84836,2.84836,0,0,1-1.20711-2.3406,3.91056,3.91056,0,0,0-.60973-1.93959c-.667-1.2194-3.31449-1.15394-4.75894-.90433C300.30626,342.7974,297.69967,345.71089,298.36666,347.71187Z" transform="translate(-27.25229 -213)"/>
    <path class="cls-3" d="M315.05784,367.90985a10.60728,10.60728,0,0,0,1.13756-1.158c-1.78819-1.17849-7.46785-4.03878-8.37626-4.41116-.4092-.1596-1.04754-.41737-1.59588-3.249a13.5735,13.5735,0,0,1-6.72721,9.964c.46649.72836,1.01073,1.7309,1.71045,3.05669.87159,1.64089,2.32423,4.37433,2.96258,4.79171.401.14321.85933-.1514,1.23579-.5074l-.16776-.11868C309.98788,369.66942,313.78522,368.22084,315.05784,367.90985Z" transform="translate(-27.25229 -213)"/>
    <path class="cls-3" d="M303.95222,357.17661c-3.41681-1.87413-6.94819-5.782-7.91389-8.68726-1.00661-3.01987,1.44038-6.18706,3.01169-7.82385a18.19294,18.19294,0,0,0-4.03059-1.26033c-.045.07775-.0941.15959-.14321.2496-.11458.19234-.23734.41329-.38464.64654-.29464.46649-.64245,1.00663-1.04345,1.57133-.40513.5606-.85114,1.14984-1.32582,1.7227-.47876.57289-.98206,1.12939-1.48946,1.62863a13.75592,13.75592,0,0,1-1.50587,1.3176c-.12685.09-.2496.17186-.36417.2537-.12275.07365-.23324.14321-.33964.2087.97389,2.33243,1.69,6.28526.78975,9.0719a4.72352,4.72352,0,0,1-3.99377,3.49456,6.44673,6.44673,0,0,1-.83066.05727,4.87524,4.87524,0,0,1-3.28177-1.20712c-2.10738-1.83731-2.61068-5.24184-2.73344-6.91544-1.3708-.33145-4.18608-.69974-5.10677,1.44855-.7652,1.78412,1.74316,5.12725,3.76052,7.81159.74065.99025,1.46491,1.95595,2.06645,2.87664l2.72934,3.06491-1.38309-.46649c.04093.11866.07775.24141.10639.3601.72839,2.91758-.2987,3.89147-1.72273,4.86534a6.53929,6.53929,0,0,0-2.046,1.98462c-.38055.58924-.7038,1.0639-.98205,1.4731-1.19078,1.74728-1.289,1.89049-1.289,4.317a5.19394,5.19394,0,0,0,1.9396,4.11652l.09.06549.01227.00819.71609.491v.00409a13.27367,13.27367,0,0,0,8.08575,1.89049c.61789-.2046,3.51911-1.20711,5.64284-2.1851.73246-.33964.12685-3.957-.07367-5.14361-.08592-.5115-.15957-.9657-.21277-1.37083l-3.17128,1.80867,3.23265-4.37022a13.23609,13.23609,0,0,1,2.83573-3.42091,15.5012,15.5012,0,0,0,2.47567-2.83574,1.47779,1.47779,0,0,1,1.30124-.92069h.01226A11.38827,11.38827,0,0,0,303.95222,357.17661Z" transform="translate(-27.25229 -213)"/>
    <path class="cls-3" d="M496.86426,383.20975c-.8184.11049-1.82506.2496-2.20149.356-.44606.57288-1.07209,3.069-1.40352,5.57326.47054,1.12939,2.49195,5.53236,5.7983,6.95229l.532.2046.06543.02455c1.3176.5033,5.09858,1.81684,6.77633,1.81684.221,0,.9739-.39284,1.38309-5.45871.01634-.23324.03682-.45011.0532-.63835a2.29992,2.29992,0,0,1,1.05162-1.80864,27.40887,27.40887,0,0,1-5.291-8.79365C502.22064,382.47729,499.51175,382.84965,496.86426,383.20975Z" transform="translate(-27.25229 -213)"/>
    <path class="cls-3" d="M509.34068,374.24424a3.54423,3.54423,0,0,0,2.63116-2.57387,12.42479,12.42479,0,0,0-.5033-5.89242,12.8903,12.8903,0,0,0-4.82036-2.02963c-.39281-.0491-1.70637.77339-3.12223,3.00761-1.65722,2.60659-2.24649,5.17224-1.75952,5.93337.33962.53195.65881,1.02706.95342,1.49765C504.463,375.20994,506.92641,374.8212,509.34068,374.24424Z" transform="translate(-27.25229 -213)"/>
    <path class="cls-3" d="M516.84125,363.04451a6.22344,6.22344,0,0,1,.67109.18l.65471.24551c.21689.08184.42148.20459.63018.30689.1023.0532.20869.1064.3069.16369l.29051.19231a5.52719,5.52719,0,0,1,.56884.40511c.17593.14733.36005.28644.52783.446.15959.16367.32733.32326.48288.48695l.446.52376a10.40223,10.40223,0,0,1,.757,1.12529q.17189.29465.31919.60153c.05315.11049.1023.21687.1473.33145.045-.03684.09411-.06955.14321-.10639a19.47222,19.47222,0,0,1,1.7268-1.15394c.2046-.11866.38058-.221.51969-.29871.44606-.47468,2.42247-2.70479,2.11148-4.88991-.18008-1.26443-1.14982-2.37744-2.88077-3.30633a4.56029,4.56029,0,0,0-4.06335-.43784c-2.09914.86752-3.50271,3.38-4.22694,5.029l.17592.02046A4.49779,4.49779,0,0,1,516.84125,363.04451Z" transform="translate(-27.25229 -213)"/>
    <path class="cls-3" d="M526.90345,403.38727a3.93485,3.93485,0,0,1,.847-.7079.741.741,0,0,0,.43372-.58925c.08187-.85114-1.6204-3.94876-3.1999-6.19525l-.225-.31916v-7.41059l.67923-.33961c5.40139-2.70072,6.53488-7.89751,6.53488-11.77672a.52865.52865,0,0,0-.16774-.446,3.22111,3.22111,0,0,0-1.84548-.47059q-.07367.08595-.1596.18415c-.41329.47056-.96979,1.08845-1.54678,1.68179a22.1267,22.1267,0,0,1-1.649,1.56724c-.23737.2005-.43378.36419-.58108.46649-.14321.10637-.22508.16776-.22508.16776s.22508-.33964.50745-.8716c.28642-.536.62194-1.2644.92474-2.005.3069-.74067.58518-1.49358.78158-2.05827.06134-.16776.11459-.32326.1596-.45421-.07368-1.60814-1.74729-3.81372-2.76618-4.95947a17.65239,17.65239,0,0,0-1.70228.63425c-.15954.06546-.3069.13912-.4542.2087-.1514.06955-.28647.1473-.42553.221a6.71349,6.71349,0,0,0-.70386.43374c-.1023.06549-.176.135-.2537.19234a.05609.05609,0,0,0-.01638.01226c-.08592.11459-.17593.22506-.26594.33555a5.97743,5.97743,0,0,1-.76115.78155c-.06954.06139-.13912.11869-.21279.17188-.07773.04911-.14316.1064-.225.15141a2.58387,2.58387,0,0,1-.23322.12685l-.24147.0941a2.26934,2.26934,0,0,0,.24966-.42555,4.42729,4.42729,0,0,0,.15135-.45421,5.5173,5.5173,0,0,0,.14735-.93707,9.08829,9.08829,0,0,0,.02453-.94525c0-.1555-.00814-.31509-.01633-.47056l-.02048-.22915c-.0082-.06549-.01229-.13914-.02458-.19234l.03277.62609c-.02867-.08594-.1064-.266-.17188-.40513-.06958-.1473-.1514-.29461-.23322-.43782a8.26163,8.26163,0,0,0-.56065-.83478l-.32323-.37645-.34781-.35191c-.11868-.11458-.24966-.20459-.37239-.31509a3.2883,3.2883,0,0,0-.397-.27825l-.20051-.135c-.06953-.04091-.14316-.07365-.21274-.11049a4.72592,4.72592,0,0,0-.43372-.21277l-.45016-.17188a4.41709,4.41709,0,0,0-.47054-.12275,2.85964,2.85964,0,0,0-.46654-.09411l-.446-.0532-.11044-.01636c-.04506-.00409-.09825,0-.14735,0h-.29461l-.28233.0041-.55655.311a14.22568,14.22568,0,0,1,.38467,6.64539,6.02247,6.02247,0,0,1-4.45207,4.40294,18.974,18.974,0,0,1-4.403.63835q-.36833,0-.73657-.02455c1.05576,3.45772,3.76459,10.77417,8.42541,13.2089l.0041.0041.892.39691-.19231.96163c-.1514.7611.99432,2.61068,2.16057,3.85872l.37643.40511-.0491.54831a42.52758,42.52758,0,0,0-.21274,7.40239c.05724.266.46644.56469,1.00251.8143,3.67049,1.04754,9.50975-1.75135,9.57109-1.78Z" transform="translate(-27.25229 -213)"/>
    <path class="cls-3" d="M630.69634,476.114a2.06131,2.06131,0,1,0,2.32836,2.046A2.20194,2.20194,0,0,0,630.69634,476.114Z" transform="translate(-27.25229 -213)"/>
    <path class="cls-3" d="M595.976,549.8513l-12.12862.34784a21.04155,21.04155,0,0,0-3.73183,4.03468l-.33966.446-.55651.03682a3.01335,3.01335,0,0,0-2.44294,1.93142,2.63177,2.63177,0,0,0,.6097,2.88484c1.64088,1.75545,10.43044-.02455,15.76229-2.02144l.1023-.04093,3.47818-.61787a1.16341,1.16341,0,0,0,.92888-1.35444A36.69371,36.69371,0,0,0,595.976,549.8513Z" transform="translate(-27.25229 -213)"/>
    <path class="cls-3" d="M633.0738,550.46919a36.57858,36.57858,0,0,1-11.80943,2.22194H621.072c-.99023,2.20968-.49511,5.58556-.27,6.7845l9.03915,1.38719c3.15085.57286,9.99672.9616,11.257-1.44448.78158-1.49355-3.15495-4.57073-5.50783-6.408-.46644-.36419-.9207-.72019-1.34623-1.05983A4.21193,4.21193,0,0,1,633.0738,550.46919Z" transform="translate(-27.25229 -213)"/>
    <path class="cls-3" d="M666.37429,398.47281c-.22912-.29461-1.13758-.69562-3.22857-.69562-.356,0-.753.01226-1.18259.04091a1.01291,1.01291,0,0,0-.90431.69154l-.0491.6138a36.3121,36.3121,0,0,1-1.87825,10.10309,63.70651,63.70651,0,0,1-3.294,8.21669,1.01724,1.01724,0,0,0,.59741,1.40354l3.83827,1.30125a1.02144,1.02144,0,0,0,1.13758-.33964c.045-.0573.09-.11866.13507-.18005,1.8291-2.53294,3.43312-7.89751,4.32924-12.636C666.6239,403.05992,666.88169,399.56128,666.37429,398.47281Z" transform="translate(-27.25229 -213)"/>
    <path class="cls-3" d="M664.541,419.37871l10.9338,10.43044c.9084-1.28488,1.46081-7.51286.80206-13.40941-.05734-.51556-.98214-1.48536-2.001-2.2833l-.11459.11866-.84292-.802-.39281-.2537-.01639-.135-4.81621-4.583A46.58853,46.58853,0,0,1,664.541,419.37871Z" transform="translate(-27.25229 -213)"/>
    <path class="cls-3" d="M737.88968,403.38317h-.06134c-2.1319,0-4.32115,2.45519-4.34157,2.47974l-.5688.65473-5.98656-2.32833,1.34623-1.3299c3.44141-3.39633,7.23059-7.25506,7.75023-7.96708.19645-.53195.67928-3.24493-.40511-4.81624a3.4944,3.4944,0,0,0-3.22038-1.25624c-4.227.12276-7.14047,6.24026-9.06373,10.2913a25.36113,25.36113,0,0,1-1.93959,3.63777,3.27684,3.27684,0,0,1-2.96259,1.66544c-1.72275-.16776-2.64749-2.0378-2.74575-2.25059l-.15544-.32735.0491-.36419a7.176,7.176,0,0,0-5.23365-7.88115c-.95751-.24141-3.27768-.54831-4.17385,1.8373-1.57535,4.20246,1.69414,7.86069,3.45365,9.82893a7.20781,7.20781,0,0,1,1.05162,1.34218c.8184,1.63678.47473,6.74356.06144,7.93024-.31919.92477-1.35856,1.49356-3.48637,2.5943-1.41176.72838-3.33907,1.72683-3.87918,2.50019-.47064.67109.16773,1.96007.74881,2.803,1.068,1.32579,4.96766,4.94311,6.43257,6.273a13.62865,13.62865,0,0,0,3.80141,2.07871c.83888-.63835,2.61892-3.69914,5.29914-9.11281l.4092-.82659c.63422-1.2726,1.18668-2.37334,2.63525-1.73909.21689.09411.72019.31916,2.47157-.21689,3.58862-1.08845,4.43564-4.97992,4.4725-5.14361l.2005-.97387.99433-.00819c5.32775-.03274,8.8346-2.28333,9.833-4.36613a3.306,3.306,0,0,0-.53607-3.70733A2.92377,2.92377,0,0,0,737.88968,403.38317Z" transform="translate(-27.25229 -213)"/>
  </g>
  <path d="M565.46212,438.38184c.446,5.32776,1.40761,10.96649,4.8735,15.91779a25.05908,25.05908,0,0,0,9.26019,7.82793c4.8367,2.50838,11.00328,4.19427,18.58572,5.09861a41.59473,41.59473,0,0,0,4.91856.3028,29.84442,29.84442,0,0,0,18.00059-5.55281,31.42846,31.42846,0,0,0,7.206-7.39011,40.67523,40.67523,0,0,0,4.56256-8.59315,37.50729,37.50729,0,0,0,1.98051-6.74356l.27827-1.65725-1.66136.23735q-.4112.06137-.85931.11046c-11.09743,1.21124-40.07682-1.97233-55.64266-3.68687-10.8274-1.18666-10.8274-1.19075-11.37975-.6588l-.41739.401.03681.56879C565.278,435.808,565.35572,437.08469,565.46212,438.38184Zm36.06252,26.65922q-1.203-.05525-2.4429-.18414h-.00409c-.2005-.02455-.401-.045-.60561-.06958a54.9638,54.9638,0,0,1-16.50291-4.20244,20.98084,20.98084,0,0,1,17.77556.978c.26594.14321.536.29051.80611.446l.47873.27415.52378-.176c.19231-.06546.4051-.135.63428-.2046,3.74-1.158,11.95674-3.00759,16.78119-1.38716C614.10746,463.82983,608.27235,465.33977,601.52464,465.04106Zm-24.826-28.34511c15.304,1.6818,43.48542,4.78352,55.36853,3.76053-.23327.90431-.58517,2.14009-1.10076,3.58047-.89208.03275-2.35289.06956-3.49042.01636-1.25217-2.11144-2.68846-1.83729-3.28177-1.6a3.13335,3.13335,0,0,0-1.41991,1.28079c-1.80462.07775-7.12009-.01229-10.64322-.12278a2.07974,2.07974,0,0,1-1.55088-.56467,2.17035,2.17035,0,0,0-3.114-.35193c-1.43629,1.16214-4.3293,1.57953-7.742,1.11713-4.75077-.64654-5.58965-2.07054-5.65513-2.19739a1.31861,1.31861,0,0,0-.99433-1.03118c-.92888-.21689-1.44857.49921-2.05418,1.3176-.15549.21689-.33147.45423-.47053.61789-.266.1023-1.74728.48695-7.963-.60151a7.90692,7.90692,0,0,1-4.24337-1.735,2.815,2.815,0,0,0-2.27107-.78568,2.84787,2.84787,0,0,0-1.70222.81023c-.04916.00407-.09821.00407-.14736.00407-4.20656,0-5.93746-1.825-6.33437-2.32833-.05724-.712-.10639-1.424-.15135-2.1319C569.46818,435.90211,572.889,436.27447,576.69866,436.696Z" transform="translate(-27.25229 -213)"/>
  <path d="M630.69634,474.88635a3.28291,3.28291,0,1,0,3.556,3.27358A3.42814,3.42814,0,0,0,630.69634,474.88635Zm0,5.31547a2.06131,2.06131,0,1,1,2.32836-2.04189A2.20154,2.20154,0,0,1,630.69634,480.20182Z" transform="translate(-27.25229 -213)"/>
  <path d="M625.99057,404.96679a4.74056,4.74056,0,1,0-4.73849-4.73851A4.74749,4.74749,0,0,0,625.99057,404.96679Z" transform="translate(-27.25229 -213)"/>
  <path d="M572.1443,483.52041c-4.67715,16.5725,1.735,23.98715,4.70577,26.40552a7.17235,7.17235,0,0,0,3.691,1.56311c2.05418.24963,6.12977.6138,13.87181.933.31509.01226.62608.01635.92888.01635,6.66175,0,10.51636-3.024,12.59511-5.63056a12.74028,12.74028,0,0,0,2.69245-7.93431V482.62836H572.398Zm2.11966,1.56314H608.1741v13.79a10.29716,10.29716,0,0,1-2.15643,6.40392c-2.64755,3.31451-6.51444,4.894-11.50253,4.68941-7.66426-.311-11.66623-.67109-13.6795-.9166a4.71828,4.71828,0,0,1-2.4347-1.02709C575.85569,505.95262,570.44612,499.61415,574.264,485.08355Z" transform="translate(-27.25229 -213)"/>
  <path d="M571.74329,408.94827a24.28608,24.28608,0,1,0-24.38816-24.28588,24.03621,24.03621,0,0,0,2.63521,10.97468A24.42142,24.42142,0,0,0,571.74329,408.94827Zm0-2.45518a21.9512,21.9512,0,0,1-17.972-9.33379c5.22546,2.20148,15.529,5.82287,26.65108,5.82287,1.12934,0,2.271-.03681,3.41674-.11866A21.87947,21.87947,0,0,1,571.74329,406.49309Zm0-43.66137a21.90832,21.90832,0,0,1,21.93707,21.83067,21.68593,21.68593,0,0,1-6.33847,15.32855c-16.04461,2.57794-32.924-5.14362-35.637-6.45713a21.58625,21.58625,0,0,1-1.89453-8.87142A21.90481,21.90481,0,0,1,571.74329,362.83172Z" transform="translate(-27.25229 -213)"/>
  <path d="M580.19323,399.83134a9.77164,9.77164,0,1,0-9.77164-9.77163A9.78134,9.78134,0,0,0,580.19323,399.83134Zm0-17.08808a7.31645,7.31645,0,1,1-7.31646,7.31645A7.32684,7.32684,0,0,1,580.19323,382.74326Z" transform="translate(-27.25229 -213)"/>
  <path d="M580.19323,394.80232a4.74055,4.74055,0,1,0-4.73854-4.74261A4.74489,4.74489,0,0,0,580.19323,394.80232Z" transform="translate(-27.25229 -213)"/>
  <path d="M555.64957,476.02391c0-2.65978-1.37494-4.74668-3.13037-4.74668s-3.13037,2.0869-3.13037,4.74668,1.3749,4.74261,3.13037,4.74261S555.64957,478.68369,555.64957,476.02391Zm-5.03315,0c0-2.07463,1.00661-3.51909,1.90278-3.51909.90022,0,1.90278,1.44446,1.90278,3.51909,0,2.07054-1.00256,3.515-1.90278,3.515C551.623,479.53893,550.61642,478.09445,550.61642,476.02391Z" transform="translate(-27.25229 -213)"/>
  <g>
    <path class="cls-4" d="M142.86755,356.837a39.719,39.719,0,0,0,79.27383,3.605q.1657-1.78.16366-3.605a39.71875,39.71875,0,1,0-79.43749,0Zm39.46709-31.60641a30.84531,30.84531,0,1,1-30.8453,30.84531A30.88007,30.88007,0,0,1,182.33464,325.23056Z" transform="translate(-27.25229 -213)"/>
    <path class="cls-4" d="M544.56847,399.34849l-.02048.08594c2.18515,4.95948,9.68578,13.15569,19.50651,15.7582,9.16189,2.43063,18.58572-.11049,28.00136-7.55379l1.24807-.98209.63832,1.45267c.05729.13095,5.94155,13.14342,19.24452,18.20929,8.9369,3.40043,19.18732,2.52474,30.46887-2.60659,9.94347-4.268,14.09688-18.729,14.16232-20.96729l.00409-.16776.04911-.1596a17.02608,17.02608,0,0,0,.68747-3.54773v-.08594a3.379,3.379,0,0,1,.04091-.49921v-.0041a28.19426,28.19426,0,0,0-3.21629-13.96181,38.41761,38.41761,0,0,0-14.457-15.67226,31.79171,31.79171,0,0,0-3.09351-1.60407c-11.91173-5.37276-24.77687-2.01734-35.78025,9.48522l-1.82091,1.90275-.28642-2.61477c-.01228-.09411-1.23988-9.77571-11.8872-16.19195-.0041-.00407-.01229-.00407-.01638-.00817-13.19253-7.10775-32.72761-5.1559-42.60154,10.41a28.48953,28.48953,0,0,0-1.1212,28.90161Zm80.13726-27.08068a24.36541,24.36541,0,0,1,24.39221,24.28586,24.11406,24.11406,0,0,1-6.27293,16.241,24.42777,24.42777,0,0,1-41.07939-8.0571,24.02934,24.02934,0,0,1-1.42809-8.18395A24.36454,24.36454,0,0,1,624.70573,372.26781Zm-52.96244-11.89128a24.286,24.286,0,1,1-21.753,35.26054,24.03621,24.03621,0,0,1-2.63521-10.97468A24.36454,24.36454,0,0,1,571.74329,360.37653Z" transform="translate(-27.25229 -213)"/>
    <path class="cls-4" d="M349.0253,294.99905l-.05727.02048c.32326,6.46532,1.87,11.32659,4.0715,14.97662,6.1175,10.1399,17.30088,10.95829,21.5238,10.87647,14.11731-.27418,26.92109-9.14148,26.86379-18.60212l-.00407-.09.01227-.08594a1.57379,1.57379,0,0,1,3.05262-.27825l.03271.12275a20.9155,20.9155,0,0,0,9.76757,13.57717c6.78857,4.16972,16.061,5.16,25.4357,2.72117a23.3797,23.3797,0,0,0,11.85853-7.86479,26.19465,26.19465,0,0,0,5.79425-17.4809c-.00409-.0491-.00409-.1023-.00409-.1555l-.01634-.42965c-.356-17.77144-16.09786-24.48229-16.769-24.75644a35.97183,35.97183,0,0,0-12.86107-2.48793l-.0982.18c-.11049-.05729-.21689-.11866-.32736-.176a28.14271,28.14271,0,0,0-13.88,3.92419,30.18851,30.18851,0,0,0-9.23966,8.30672l-1.08848,1.66134-.99844-1.71453c-5.33183-9.18649-16.23695-11.35523-23.03372-11.76853-1.28079-.07774-2.41834-.09413-3.34313-.08184a28.90277,28.90277,0,0,0-3.159.19231c-10.86419,1.58769-18.1438,6.84589-21.622,15.63544a30.40545,30.40545,0,0,0-2.00917,12.83243Zm80.63645-25.55028a23.07465,23.07465,0,1,1-23.07053,23.07464A23.10268,23.10268,0,0,1,429.66175,269.44877Zm-52.90923-.04911A23.07261,23.07261,0,1,1,353.682,292.47022,23.09652,23.09652,0,0,1,376.75252,269.39966Z" transform="translate(-27.25229 -213)"/>
  </g>
  <path d="M429.66175,315.59806a23.07465,23.07465,0,1,0-23.07053-23.07465A23.10266,23.10266,0,0,0,429.66175,315.59806Zm0-43.69411a20.61947,20.61947,0,1,1-20.61535,20.61946A20.64293,20.64293,0,0,1,429.66175,271.904Z" transform="translate(-27.25229 -213)"/>
  <path d="M439.3393,456.11237c-1.8332,0-3.32683,1.89866-3.32683,4.227,0,2.33243,1.49363,4.227,3.32683,4.227,1.83729,0,3.33082-1.89458,3.33082-4.227C442.67012,458.011,441.17659,456.11237,439.3393,456.11237Zm0,7.22642c-1.13758,0-2.09923-1.3708-2.09923-2.99942,0-1.62451.96165-2.9994,2.09923-2.9994s2.10323,1.37489,2.10323,2.9994C441.44253,461.968,440.47688,463.33879,439.3393,463.33879Z" transform="translate(-27.25229 -213)"/>
  <path d="M425.4143,308.13021a9.58136,9.58136,0,1,0-9.58342-9.5834A9.59276,9.59276,0,0,0,425.4143,308.13021Zm0-16.70754a7.12618,7.12618,0,1,1-7.12824,7.12414A7.13215,7.13215,0,0,1,425.4143,291.42267Z" transform="translate(-27.25229 -213)"/>
  <path d="M375.29578,403.0231a60.65652,60.65652,0,0,0,3.00352,6.51442c3.66639,6.494,9.59569,10.84373,27.40394,11.37159.38055.00819.757.01638,1.12939.01638a31.02734,31.02734,0,0,0,22.0271-8.64634,40.52713,40.52713,0,0,0,7.9589-10.77418,43.6113,43.6113,0,0,0,2.26692-5.1559c.13916.15959.27008.31509.39691.46239.18417.19234.31918.37648.47473.54834.16364.17186.27.33964.39691.491.06544.07365.11868.14731.18.21686a1.61254,1.61254,0,0,1,.131.19234c.07772.12275.15954.22505.20459.29871.05315.06955.08182.11049.08182.11049s.02458-.04094.06139-.11869c.02863-.07365.09-.19231.13912-.3478.02457-.07775.05729-.16776.08182-.266.02048-.09821.02867-.20051.04505-.311a3.59789,3.59789,0,0,0,.01229-.76113,5.20438,5.20438,0,0,0-.14736-.86749,5.58187,5.58187,0,0,0-.311-.91251,6.33243,6.33243,0,0,0-.45825-.892,8.29271,8.29271,0,0,0-1.23578-1.6,8.24408,8.24408,0,0,0-.712-.6588,8.0553,8.0553,0,0,0-1.44039-.95751,6.36581,6.36581,0,0,0-1.17034-.47878c-.14726-.0491-.27823-.06956-.36005-.09a.91614.91614,0,0,0-.131-.02455s.0532.18414.16369.47466a10.75411,10.75411,0,0,0,.5033,1.12529,14.82445,14.82445,0,0,0,.82659,1.40764c.0491.08184.1023.15959.1555.23734-8.17169,4.051-47.55694,3.68687-62.45581,3.17947l-1.99688-.06548.83885,1.80864C374.07638,400.09324,374.69427,401.58272,375.29578,403.0231Zm15.0462,13.22934a2.71324,2.71324,0,0,1,.84294-.356c1.2276-.11866,8.11847.76929,9.00235,1.70227a6.69176,6.69176,0,0,0,.61379.58515A44.43275,44.43275,0,0,1,390.342,416.25244Zm29.03256-.44192c1.13756-1.43219,3.97329-2.893,5.96608-3.7278A28.60675,28.60675,0,0,1,419.37454,415.81052Zm17.05123-19.35915c-.31509.802-.7202,1.75547-1.2194,2.80711h-.31919a6.69193,6.69193,0,0,1-.72019-1.32989,1.33791,1.33791,0,0,0-.58922-.73248C434.63763,396.967,435.59508,396.72145,436.42577,396.45137Zm-4.3784,1.04757a3.72556,3.72556,0,0,0-.6097,1.1212.87031.87031,0,0,1-.64654.54831c-6.46941,1.26033-10.455,1.05164-11.04833.2005l-.08591-.12685-.11868-.09411a1.93772,1.93772,0,0,0-.38875-.24144A119.92089,119.92089,0,0,0,432.04737,397.49894Zm-14.39965,1.50175a3.18474,3.18474,0,0,0-1.11711,1.8782.81184.81184,0,0,1-.77748.60153h-8.16349a.78317.78317,0,0,1-.68336-.38055,7.527,7.527,0,0,0-1.29715-1.645C409.67246,399.369,413.76853,399.22574,417.64772,399.00069Zm-13.79,18.733a6.31764,6.31764,0,0,1,.80613-.847c1.22759-1.04754,9.04325-2.32424,10.1931-1.66951a18.7866,18.7866,0,0,1,1.514,1.14985c.2005.15959.38055.30689.55243.43374a30.5116,30.5116,0,0,1-11.14656,1.65315q-1.2951-.03682-2.49609-.10639A4.53908,4.53908,0,0,0,403.85776,417.73373Zm-1.19895-18.22564a10.57218,10.57218,0,0,0-1.94778,1.70225.85549.85549,0,0,1-.63835.27008h-9.166a.882.882,0,0,1-.712-.36009,8.305,8.305,0,0,0-1.41992-1.5754C392.96083,399.58174,397.74028,399.58584,402.65881,399.50809ZM388.2387,415.19673c.04093.10637.08594.2046.12685.29461a16.12795,16.12795,0,0,1-5.57736-3.916l2.05417,1.03936A26.73944,26.73944,0,0,1,388.2387,415.19673Zm-1.39945-15.67228a2.38416,2.38416,0,0,0-.536,1.32989.70878.70878,0,0,1-.62608.62608l-8.92869-1.33808c-.11457-.27006-.23322-.54424-.35191-.8184C378.54481,399.38533,382.25623,399.47125,386.83925,399.52445Z" transform="translate(-27.25229 -213)"/>
  <path d="M424.39947,303.83773a4.405,4.405,0,1,0-4.403-4.403A4.41046,4.41046,0,0,0,424.39947,303.83773Z" transform="translate(-27.25229 -213)"/>
  <path d="M419.82874,472.45979a2.43466,2.43466,0,0,0-2.15647-.4051c-10.73734,3.03626-25.50936.6097-29.78138-.20869a2.449,2.449,0,0,0-2.90122,2.50431l.58924,14.24006a17.29336,17.29336,0,0,0,15.73365,16.50292c.13911.01228.27416.02457.41739.03274.622.045,1.23986.06956,1.84546.06956.13914,0,.27828,0,.41329-.00408A17.271,17.271,0,0,0,420.79444,487.907V474.40348A2.411,2.411,0,0,0,419.82874,472.45979Zm-1.48948,15.4472a14.80364,14.80364,0,0,1-14.39147,14.82934c-.66289.01226-1.35034-.00819-2.046-.05729-.12685-.0082-.2578-.02046-.38055-.02865a14.83139,14.83139,0,0,1-13.48716-14.16232l-.6056-14.2278c4.407.83885,19.65373,3.33906,30.91076.14321Z" transform="translate(-27.25229 -213)"/>
  <path d="M376.75252,315.54487A23.07261,23.07261,0,1,0,353.682,292.47022,23.1,23.1,0,0,0,376.75252,315.54487Zm0-43.69a20.61742,20.61742,0,1,1-20.61537,20.61537A20.63939,20.63939,0,0,1,376.75252,271.85485Z" transform="translate(-27.25229 -213)"/>
  <path d="M381.311,308.13021a9.58136,9.58136,0,1,0-9.5834-9.5834A9.59628,9.59628,0,0,0,381.311,308.13021Zm0-16.70754a7.12618,7.12618,0,1,1-7.12821,7.12414A7.13565,7.13565,0,0,1,381.311,291.42267Z" transform="translate(-27.25229 -213)"/>
  <path d="M382.32169,303.83773a4.405,4.405,0,1,0-4.40294-4.403A4.41046,4.41046,0,0,0,382.32169,303.83773Z" transform="translate(-27.25229 -213)"/>
  <path d="M365.73284,462.635a4.052,4.052,0,0,0,3.84647-4.227,4.43246,4.43246,0,0,0-.12276-1.05164,3.93358,3.93358,0,0,0-3.72371-3.17538,4.05724,4.05724,0,0,0-3.84644,4.227c0,.1473.00817.29053.02045.43374A4.00672,4.00672,0,0,0,365.73284,462.635Zm0-7.22644A3.02708,3.02708,0,1,1,363.114,458.408,2.832,2.832,0,0,1,365.73284,455.40854Z" transform="translate(-27.25229 -213)"/>
  <path class="cls-3" d="M295.39589,338.68907l-2.0828-1.30124s-.06956.08594-.18824.24141v1.46084l1.04345.16369c.25779.04091.54423.09.85113.1514.0532-.09411.09821-.18.13914-.2578C295.31,338.865,295.39589,338.68907,295.39589,338.68907Z" transform="translate(-27.25229 -213)"/>
  <path d="M239.31129,461.32555a3.52525,3.52525,0,1,0,3.52728-3.52728A3.5294,3.5294,0,0,0,239.31129,461.32555Zm3.52728-2.29969a2.29764,2.29764,0,1,1-2.29969,2.29969A2.30084,2.30084,0,0,1,242.83857,459.02586Z" transform="translate(-27.25229 -213)"/>
  <path d="M222.2232,469.99234l-.64242-.21279c-.38057-.12685-.38057-.12685-5.962.712-8.35583,1.25624-25.74262,3.88331-31.97469,3.79737l-1.23578-.01636-.00817,1.23576c-.0041.70793-.01639,17.44,5.87607,26.24183l.06136.08594c2.71708,3.38,7.72975,4.72623,12.98385,4.72623a34.40022,34.40022,0,0,0,8.0612-.98616c6.15432-1.50177,13.13932-5.14361,14.281-10.84783,2.05418-10.27494-1.14165-23.52068-1.27669-24.07718Zm-.9698,24.25314c-.7529,3.77279-5.64282,7.28371-12.45187,8.94915-7.9589,1.94369-15.55767.76929-18.51618-2.85622-4.57892-6.89087-5.295-19.64554-5.40958-23.61067,7.161-.21279,22.58361-2.52886,31.10717-3.80962,1.72273-.2578,3.28587-.49514,4.25157-.63018C220.93834,475.61062,222.882,486.1188,221.2534,494.24548Z" transform="translate(-27.25229 -213)"/>
  <path d="M205.8553,441.43854a10.30075,10.30075,0,1,0,0-20.58263c-5.786,0-12.85288,4.98812-12.85288,10.80692C193.00242,437.26065,199.78692,441.43854,205.8553,441.43854Z" transform="translate(-27.25229 -213)"/>
  <path d="M182.33464,386.92117a30.84531,30.84531,0,1,0-30.8453-30.8453A30.88006,30.88006,0,0,0,182.33464,386.92117Zm0-59.23542a28.39012,28.39012,0,1,1-28.39012,28.39012A28.4203,28.4203,0,0,1,182.33464,327.68575Z" transform="translate(-27.25229 -213)"/>
  <g>
    <path class="cls-5" d="M641.64647,410.405a21.65986,21.65986,0,0,0,4.99628-13.85135,21.935,21.935,0,1,0-42.892,6.46124C618.96468,415.45859,638.75756,411.12521,641.64647,410.405Zm-15.6559-19.94838a9.77164,9.77164,0,1,1-9.77159,9.77164A9.78142,9.78142,0,0,1,625.99057,390.45664Z" transform="translate(-27.25229 -213)"/>
    <path class="cls-5" d="M574.223,440.21094c.04915,0,.0982,0,.14736-.00407a2.84787,2.84787,0,0,1,1.70222-.81023,2.815,2.815,0,0,1,2.27107.78568,7.90692,7.90692,0,0,0,4.24337,1.735c6.21574,1.08846,7.697.70381,7.963.60151.13906-.16366.315-.401.47053-.61789.60561-.81839,1.1253-1.53449,2.05418-1.3176a1.31861,1.31861,0,0,1,.99433,1.03118c.06548.12685.90436,1.55085,5.65513,2.19739,3.41269.4624,6.3057.045,7.742-1.11713a2.17035,2.17035,0,0,1,3.114.35193,2.07974,2.07974,0,0,0,1.55088.56467c3.52313.11049,8.8386.20053,10.64322.12278a3.13335,3.13335,0,0,1,1.41991-1.28079c.59331-.23734,2.0296-.51149,3.28177,1.6,1.13753.0532,2.59834.01639,3.49042-.01636.51559-1.44038.86749-2.67616,1.10076-3.58047-11.88311,1.023-40.06453-2.07873-55.36853-3.76053-3.80965-.42148-7.23048-.79384-8.96138-.94524.045.7079.09411,1.4199.15135,2.1319C568.28554,438.38594,570.01644,440.21094,574.223,440.21094Z" transform="translate(-27.25229 -213)"/>
    <path class="cls-5" d="M587.34189,399.99094a21.68593,21.68593,0,0,0,6.33847-15.32855,21.93527,21.93527,0,0,0-43.87,0,21.58625,21.58625,0,0,0,1.89453,8.87142C554.41788,394.84732,571.29728,402.56888,587.34189,399.99094Zm-7.14866-19.70287a9.77164,9.77164,0,1,1-9.77164,9.77164A9.784,9.784,0,0,1,580.19323,380.28807Z" transform="translate(-27.25229 -213)"/>
    <path class="cls-5" d="M429.66175,313.14288a20.61947,20.61947,0,1,0-20.61535-20.61947A20.64292,20.64292,0,0,0,429.66175,313.14288Zm-4.24745-24.17539a9.58136,9.58136,0,1,1-9.58342,9.57932A9.58925,9.58925,0,0,1,425.4143,288.96749Z" transform="translate(-27.25229 -213)"/>
    <path class="cls-5" d="M434.167,397.92859a6.69193,6.69193,0,0,0,.72019,1.32989h.31919c.4992-1.05164.90431-2.00508,1.2194-2.80711-.83069.27008-1.78814.51559-2.848.74474A1.33791,1.33791,0,0,1,434.167,397.92859Z" transform="translate(-27.25229 -213)"/>
    <path class="cls-5" d="M419.65689,399.2421l.08591.12685c.59335.85114,4.57892,1.05983,11.04833-.2005a.87031.87031,0,0,0,.64654-.54831,3.72556,3.72556,0,0,1,.6097-1.1212,119.92089,119.92089,0,0,1-12.89791,1.40761,1.93772,1.93772,0,0,1,.38875.24144Z" transform="translate(-27.25229 -213)"/>
    <path class="cls-5" d="M419.37454,415.81052a28.60675,28.60675,0,0,0,5.96608-3.7278C423.34783,412.91749,420.5121,414.37833,419.37454,415.81052Z" transform="translate(-27.25229 -213)"/>
    <path class="cls-5" d="M407.58964,401.48042h8.16349a.81184.81184,0,0,0,.77748-.60153,3.18474,3.18474,0,0,1,1.11711-1.8782c-3.87919.225-7.97526.36826-12.03859.4542a7.527,7.527,0,0,1,1.29715,1.645A.78317.78317,0,0,0,407.58964,401.48042Z" transform="translate(-27.25229 -213)"/>
    <path class="cls-5" d="M416.92345,416.80077c-.17188-.12685-.35193-.27415-.55243-.43374a18.7866,18.7866,0,0,0-1.514-1.14985c-1.14985-.65473-8.96551.622-10.1931,1.66951a6.31764,6.31764,0,0,0-.80613.847,4.53908,4.53908,0,0,1-.577.6138q1.20306.06754,2.49609.10639A30.5116,30.5116,0,0,0,416.92345,416.80077Z" transform="translate(-27.25229 -213)"/>
    <path class="cls-5" d="M390.19467,401.12033a.882.882,0,0,0,.712.36009h9.166a.85549.85549,0,0,0,.63835-.27008,10.57218,10.57218,0,0,1,1.94778-1.70225c-4.91853.07775-9.698.07365-13.88406.03684A8.305,8.305,0,0,1,390.19467,401.12033Z" transform="translate(-27.25229 -213)"/>
    <path class="cls-5" d="M400.18727,417.59871c-.88388-.933-7.77475-1.82093-9.00235-1.70227a2.71324,2.71324,0,0,0-.84294.356,44.43275,44.43275,0,0,0,10.45908,1.93142A6.69176,6.69176,0,0,1,400.18727,417.59871Z" transform="translate(-27.25229 -213)"/>
    <path class="cls-5" d="M376.75252,313.08968a20.61742,20.61742,0,1,0-20.61537-20.61946A20.64024,20.64024,0,0,0,376.75252,313.08968Zm4.55847-24.12219a9.58136,9.58136,0,1,1-9.5834,9.57932A9.59278,9.59278,0,0,1,381.311,288.96749Z" transform="translate(-27.25229 -213)"/>
    <path class="cls-5" d="M382.78819,411.57531a16.12795,16.12795,0,0,0,5.57736,3.916c-.04091-.09-.08592-.18824-.12685-.29461a26.73944,26.73944,0,0,0-3.39634-2.58206Z" transform="translate(-27.25229 -213)"/>
    <path class="cls-5" d="M385.67712,401.48042a.70878.70878,0,0,0,.62608-.62608,2.38416,2.38416,0,0,1,.536-1.32989c-4.583-.0532-8.29444-.13912-10.44273-.20051.11869.27416.23734.54834.35191.8184Z" transform="translate(-27.25229 -213)"/>
    <path class="cls-5" d="M182.33464,384.466a28.39012,28.39012,0,1,0-28.39012-28.39012A28.42031,28.42031,0,0,0,182.33464,384.466Zm1.77184-34.80634a12.11225,12.11225,0,1,1-12.11226,12.11224A12.12675,12.12675,0,0,1,184.10648,349.65965Z" transform="translate(-27.25229 -213)"/>
  </g>
  <g>
    <path class="cls-6" d="M184.10648,371.429a9.65706,9.65706,0,1,0-9.65708-9.65707A9.66961,9.66961,0,0,0,184.10648,371.429Zm0-14.55515a4.89809,4.89809,0,1,1-4.89811,4.89808A4.90378,4.90378,0,0,1,184.10648,356.87381Z" transform="translate(-27.25229 -213)"/>
    <path class="cls-6" d="M625.99057,407.54473a7.31645,7.31645,0,1,0-7.3164-7.31645A7.3269,7.3269,0,0,0,625.99057,407.54473Zm0-12.05906a4.74056,4.74056,0,1,1-4.73849,4.74261A4.74836,4.74836,0,0,1,625.99057,395.48567Z" transform="translate(-27.25229 -213)"/>
    <path class="cls-6" d="M381.311,305.675a7.12618,7.12618,0,1,0-7.12821-7.12822A7.13915,7.13915,0,0,0,381.311,305.675Zm1.0107-10.64733a4.405,4.405,0,1,1-4.40294,4.40706A4.41132,4.41132,0,0,1,382.32169,295.0277Z" transform="translate(-27.25229 -213)"/>
    <path class="cls-6" d="M425.4143,305.675a7.12618,7.12618,0,1,0-7.12824-7.12822A7.13565,7.13565,0,0,0,425.4143,305.675Zm-1.01483-10.64733a4.405,4.405,0,1,1-4.403,4.40706A4.41132,4.41132,0,0,1,424.39947,295.0277Z" transform="translate(-27.25229 -213)"/>
    <path class="cls-6" d="M580.19323,397.37616a7.31645,7.31645,0,1,0-7.31646-7.31645A7.3242,7.3242,0,0,0,580.19323,397.37616Zm0-12.05494a4.74055,4.74055,0,1,1-4.73854,4.73849A4.744,4.744,0,0,1,580.19323,385.32122Z" transform="translate(-27.25229 -213)"/>
  </g>
  <path d="M625.99057,409.99991a9.77164,9.77164,0,1,0-9.77159-9.77163A9.784,9.784,0,0,0,625.99057,409.99991Zm0-17.08808a7.31645,7.31645,0,1,1-7.3164,7.31645A7.32426,7.32426,0,0,1,625.99057,392.91183Z" transform="translate(-27.25229 -213)"/>
  <path d="M184.10648,373.88415a12.11225,12.11225,0,1,0-12.11226-12.11226A12.12675,12.12675,0,0,0,184.10648,373.88415Zm0-21.76931a9.65706,9.65706,0,1,1-9.65708,9.657A9.66961,9.66961,0,0,1,184.10648,352.11484Z" transform="translate(-27.25229 -213)"/>
  <circle cx="156.85418" cy="148.77189" r="4.89809"/>
  <path d="M155.31125,473.83471c1.559,0,2.82755-1.57952,2.82755-3.52321s-1.2685-3.52728-2.82755-3.52728c-1.56313,0-2.83164,1.5836-2.83164,3.52728S153.74812,473.83471,155.31125,473.83471Zm0-5.82289c.8675,0,1.6,1.05164,1.6,2.29968,0,1.244-.73245,2.29562-1.6,2.29562s-1.604-1.05164-1.604-2.29562C153.70721,469.06346,154.44376,468.01182,155.31125,468.01182Z" transform="translate(-27.25229 -213)"/>
  <g>
    <path class="cls-7" d="M551.26708,508.60011a4.82677,4.82677,0,0,1-3.28586,1.21943,6.45742,6.45742,0,0,1-.83478-.0573,15.6277,15.6277,0,0,1-8.5359-3.09353,45.00382,45.00382,0,0,0,4.03473,14.47741,35.04114,35.04114,0,0,0,2.01322,3.605C548.68093,522.832,550.51413,515.46236,551.26708,508.60011Z" transform="translate(-27.25229 -213)"/>
    <path class="cls-7" d="M387.4285,474.26027l.6056,14.2278a14.83139,14.83139,0,0,0,13.48716,14.16232c.12275.00819.2537.02045.38055.02865.69564.0491,1.38309.06955,2.046.05729A14.80364,14.80364,0,0,0,418.33926,487.907V474.40348C407.08223,477.59933,391.83553,475.09912,387.4285,474.26027Z" transform="translate(-27.25229 -213)"/>
    <g>
      <path class="cls-7" d="M259.43562,511.33764a12.88572,12.88572,0,0,1-9.71025-5.074c-1.65315-2.06644-2.53293-8.94915-2.99533-16.53159-.43375-7.17321-.487-14.97661-.46649-19.91972-.87157,1.45264-1.44036,2.34879-1.5713,2.55338l-.93706,1.46084-10.22586-13.18026.65882-.7611a47.44576,47.44576,0,0,0,4.32522-5.99473c-19.351,8.17167-65.98718,9.91895-78.4636,10.2463l5.45048,5.08632L157.43089,481.9l-7.20186-8.13485,1.48946,27.54308.11049,2.06237a20.57471,20.57471,0,0,1-2.74163,11.68668,15.10152,15.10152,0,0,1-13.569,7.86069,19.36642,19.36642,0,0,1-3.01579-.24144,41.85972,41.85972,0,0,0,11.0115,8.24941,63.99766,63.99766,0,0,0,19.52691,6.4776.15318.15318,0,0,1,.04091.0041c.98615.04091,13.082.51969,27.80907.221l.00816-.0491.90024.02864c2.50838-.05319,5.08632-.13094,7.69291-.24141.45423-.03274.72429-.05729.73655-.05729l.1555-.01229.14733.02865h.00816c.35193-.01636.70384-.03275,1.05984-.04911l1.41583-.2005-.01229.13095c10.12354-.51969,20.40667-1.50175,28.517-3.28587l.00819-.0041c14.727-3.339,28.23053-14.18686,32.298-22.32171a19.51448,19.51448,0,0,0,.80611-1.85365,9.22077,9.22077,0,0,1-4.70987,1.58359C259.763,511.33355,259.5993,511.33764,259.43562,511.33764Zm-35.772-16.60931c-1.14165,5.70422-8.12665,9.34606-14.281,10.84783a34.40022,34.40022,0,0,1-8.0612.98616c-5.2541,0-10.26677-1.34625-12.98385-4.72623l-.06136-.08594c-5.89246-8.80184-5.88017-25.5339-5.87607-26.24183l.00817-1.23576,1.23578.01636c6.23207.08594,23.61886-2.54113,31.97469-3.79737,5.58144-.83885,5.58144-.83885,5.962-.712l.64242.21279.16369.65881C222.52193,471.20765,225.71776,484.45339,223.66358,494.72833Z" transform="translate(-27.25229 -213)"/>
      <g>
        <path class="cls-7" d="M674.33726,440.55878c-14.06821,9.93123-33.15723,23.51656-43.26444,30.9476-3.17538,2.33243-5.46277,4.05923-6.43667,4.87353l3.4618,8.87959,8.60134-6.96865L674.726,447.47829c1.77181-2.16055,2.47971-3.92419,2.046-5.10268a3.65043,3.65043,0,0,0-2.43066-1.81683Zm-43.64092,40.87064a3.28291,3.28291,0,1,1,3.556-3.26949A3.42489,3.42489,0,0,1,630.69634,481.42942Z" transform="translate(-27.25229 -213)"/>
        <path class="cls-7" d="M648.61921,505.45338a37.01641,37.01641,0,0,1-4.30067-.2537l-.12688-.01636-2.7907-.94115c1.73909,4.93492,4.43159,8.53176,8.06532,10.7537,8.09388,4.9554,18.76573,1.35854,20.87316.32735a38.83666,38.83666,0,0,0,5.53231-20.92634C671.86574,498.03463,662.03681,505.45338,648.61921,505.45338Z" transform="translate(-27.25229 -213)"/>
        <path class="cls-7" d="M659.36064,520.02083a23.3479,23.3479,0,0,1-6.65765-.92479c-5.27046-1.5754-10.9747-5.651-13.99044-15.3572-1.69817-5.46687-2.54519-12.72193-1.97645-22.32171L627.03,489.28192l-5.16-13.23346.20051-.46239c.11049-.266.23322-.54422,3.32677-2.90939a115.03169,115.03169,0,0,1-18.688,1.3176c-19.80522,0-41.58269-3.28584-49.16923-4.54208l4.55442,10.32814-9.28881,5.741a70.13013,70.13013,0,0,1,1.34628,12.91837.39423.39423,0,0,1,0,.06955,82.719,82.719,0,0,1-.76111,12.79969c-1.203,8.30263-3.66229,13.49944-7.32054,15.47994,5.44639,7.23871,13.41345,11.17518,23.77845,11.73988l.02868-.33555a361.73926,361.73926,0,0,0,36.83186.63425,220.11823,220.11823,0,0,0,29.91227-2.87664v-.02865l.94937-.13914.05729-.01226a.82329.82329,0,0,0,.0982-.01636.6358.6358,0,0,0,.086-.01638c.11863-.02046.23727-.04091.35185-.06546.06959-.01229.13917-.02455.2087-.04094a88.9604,88.9604,0,0,0,10.83554-3.1017,39.56433,39.56433,0,0,0,18.864-13.81041c-1.289.36826-2.36517.6097-2.38975.6138A30.61379,30.61379,0,0,1,659.36064,520.02083Zm-48.73136-21.14732a12.74028,12.74028,0,0,1-2.69245,7.93431c-2.07875,2.60661-5.93336,5.63056-12.59511,5.63056-.3028,0-.61379-.00409-.92888-.01635-7.742-.31919-11.81763-.68336-13.87181-.933a7.17235,7.17235,0,0,1-3.691-1.56311c-2.97078-2.41837-9.38292-9.833-4.70577-26.40552l.2537-.89205h38.23128Z" transform="translate(-27.25229 -213)"/>
        <path class="cls-7" d="M617.61022,545.44836a30.97994,30.97994,0,0,1,3.41683,4.78352,35.19211,35.19211,0,0,0,12.41909-2.53293l.00819-.0041a7.06048,7.06048,0,0,0,2.81533-5.03722l.21683-4.18611a206.387,206.387,0,0,1-21.87158,2.43064A20.25124,20.25124,0,0,0,617.61022,545.44836Z" transform="translate(-27.25229 -213)"/>
        <path class="cls-7" d="M578.40094,508.02315a4.71828,4.71828,0,0,0,2.4347,1.02709c2.01327.24551,6.01524.60561,13.6795.9166,4.98809.2046,8.855-1.3749,11.50253-4.68941a10.29716,10.29716,0,0,0,2.15643-6.40392v-13.79H574.264C570.44612,499.61415,575.85569,505.95262,578.40094,508.02315Z" transform="translate(-27.25229 -213)"/>
        <path class="cls-7" d="M575.65519,541.00446a21.30114,21.30114,0,0,1,3.43732,4.00606,5.295,5.295,0,0,0,3.64182,2.55338l1.068.18415,12.82423-.37239,1.16216-.29051a3.23153,3.23153,0,0,0,2.4388-3.03626l.07362-2.60659q-2.86023.043-5.565.04094C586.88359,541.48324,580.15636,541.23361,575.65519,541.00446Z" transform="translate(-27.25229 -213)"/>
        <path class="cls-7" d="M558.98859,478.81464l-4.30886-9.76754-18.01288-40.85835a13.34279,13.34279,0,0,0-1.43624,3.79324l15.58632,51.88623Zm-9.59976-2.79073c0-2.65978,1.3749-4.74668,3.13037-4.74668s3.13037,2.0869,3.13037,4.74668-1.37494,4.74261-3.13037,4.74261S549.38883,478.68369,549.38883,476.02391Z" transform="translate(-27.25229 -213)"/>
        <path class="cls-7" d="M448.1861,497.54361a6.53653,6.53653,0,0,1-2.39784-.39693,2.40583,2.40583,0,0,1-.27828-.13095c.84292,7.23871,3.10579,12.21456,6.6576,14.56335,3.77284,2.492,8.12261,1.44445,9.62843.95751,1.20716-5.25818.90026-13.483.72428-18.21336l-.03681-.933a6.7259,6.7259,0,0,0-.93293-3.31859c-.55655,1.65725-2.10333,3.30633-4.4726,4.72623A19.12256,19.12256,0,0,1,448.1861,497.54361Z" transform="translate(-27.25229 -213)"/>
        <path class="cls-7" d="M450.83769,513.64143c-5.385-3.53955-8.1348-11.42069-8.16757-23.42246-.27822-1.80048-.5074-4.06742-.65875-6.93181-.25785-4.83671-.20055-9.59568-.17193-11.18744l-9.878-9.11693.02045-.56469a60.67841,60.67841,0,0,1,.8143-7.82795,106.75548,106.75548,0,0,1-27.69038,3.335,163.54094,163.54094,0,0,1-32.59259-3.425,78.11573,78.11573,0,0,1,1.66544,9.35015l.11866,1.1171-11.16289,2.23013c.3519,4.58711,1.14984,16.45793.577,24.66234h.01639a23.17952,23.17952,0,0,1-.487,4.15336,12.2967,12.2967,0,0,1-.82659,2.92575l-.00409.00819c-3.82192,10.71688-14.87841,16.1551-18.58574,17.71415,2.88893,6.1748,9.3706,11.01968,15.07482,14.51015,12.51326,3.47408,27.47352,4.55027,41.21847,4.55027a317.94332,317.94332,0,0,0,41.50489-2.848h.00815c15.18126-6.63308,16.93264-11.35933,18.63077-15.93415.1964-.532.401-1.07619.62608-1.62451a15.37566,15.37566,0,0,1-3.13442.33145A12.40988,12.40988,0,0,1,450.83769,513.64143ZM420.79444,487.907a17.271,17.271,0,0,1-16.80574,17.28452c-.135.00408-.27415.00408-.41329.00408-.6056,0-1.2235-.02456-1.84546-.06956-.14323-.00817-.27828-.02046-.41739-.03274a17.29336,17.29336,0,0,1-15.73365-16.50292l-.58924-14.24006a2.449,2.449,0,0,1,2.90122-2.50431c4.272.81839,19.044,3.245,29.78138.20869a2.448,2.448,0,0,1,3.12217,2.34879Z" transform="translate(-27.25229 -213)"/>
        <path class="cls-7" d="M435.37415,454.16459a58.58958,58.58958,0,0,0-.9166,7.78294l7.742,7.14867c1.37484-8.83458,7.01769-40.14635,20.30842-57.54953a51.3057,51.3057,0,0,1-4.55023-5.94563C453.5671,411.73491,439.2411,432.99272,435.37415,454.16459Zm3.96515,10.40179c-1.8332,0-3.32683-1.89458-3.32683-4.227,0-2.32834,1.49363-4.227,3.32683-4.227,1.83729,0,3.33082,1.89866,3.33082,4.227C442.67012,462.6718,441.17659,464.56638,439.3393,464.56638Z" transform="translate(-27.25229 -213)"/>
        <path class="cls-7" d="M403.73091,545.01052a4.74872,4.74872,0,0,0,2.88076,4.90217c7.11593,2.15648,16.52747.02046,20.689-1.14575a2.61866,2.61866,0,0,1,.78566-.30689c.52378-.11049.937-.221,1.26443-.31919.00816,0,.01226,0,.01636-.0041a.42187.42187,0,0,1,.05729-.01635l.00817-.0041a3.9546,3.9546,0,0,0,.99437-.41329c.02045-.03272.03681-.06137.05317-.08592,0-.07365-.00817-.15959-.01226-.27825a47.52261,47.52261,0,0,1,.12275-5.08225,8.21533,8.21533,0,0,1,3.60093-5.99063c-6.89906.74472-17.64868,1.6777-29.68317,1.86594Z" transform="translate(-27.25229 -213)"/>
        <path class="cls-7" d="M366.37528,535.41893c.78565.43374,1.43629.8102,1.9355,1.13755,3.49046,2.27514,3.67868,5.14362,3.84237,7.66836a11.971,11.971,0,0,0,.45011,3.03626c.70792,2.12781,3.6787,2.76208,4.57075,2.90529a1.45906,1.45906,0,0,1,.67109.29054l.05727-.176c.06958.02455,7.15279,2.27921,16.12648-1.65727a2.33616,2.33616,0,0,1,1.3258-.5606,2.168,2.168,0,0,0,1.81683-1.95185,51.02624,51.02624,0,0,0,.49512-7.9548A179.78283,179.78283,0,0,1,366.37528,535.41893Z" transform="translate(-27.25229 -213)"/>
        <path class="cls-7" d="M361.48946,465.02468l10.11538-2.02553c-.24144-1.85775-.58518-3.83008-1.02709-5.88017-.2005-.95341-.42558-1.9232-.667-2.91348C364.7835,433.22187,351.55823,405.245,346.4842,394.921c-.36009,2.46748-1.07209,4.14518-2.12373,5.00041-.0082.0041-.01229.01226-.02046.01636,11.924,26.67968,15.57813,48.183,16.69525,58.994C361.3217,461.68974,361.44036,463.75208,361.48946,465.02468Zm4.24338-10.84373a3.93358,3.93358,0,0,1,3.72371,3.17538,4.43246,4.43246,0,0,1,.12276,1.05164,4.052,4.052,0,0,1-3.84647,4.227,4.00672,4.00672,0,0,1-3.826-3.79327c-.01228-.14321-.02045-.28644-.02045-.43374A4.05724,4.05724,0,0,1,365.73284,454.181Z" transform="translate(-27.25229 -213)"/>
        <path class="cls-7" d="M358.887,500.7599c-4.22292-.53195-11.44116-3.83418-15.394-7.63154l-.02046-.0041.00408-.01636a12.57932,12.57932,0,0,1-1.66544-1.915,13.14509,13.14509,0,0,0-.90022,1.248,58.9632,58.9632,0,0,0,1.90276,21.4747c.04093.1473.08184.29461.12685.44191C346.03817,513.01537,354.664,508.69424,358.887,500.7599Z" transform="translate(-27.25229 -213)"/>
        <path class="cls-7" d="M249.34891,491.92941c.45421,6.3753,1.18666,11.41662,2.2956,12.80381a10.41253,10.41253,0,0,0,8.1553,4.137c2.38563-.11869,4.41525-1.41584,6.03566-3.84647a52.54564,52.54564,0,0,0,.11868-11.90354c-.09-1.25624-.16778-2.34472-.16778-3.19176a6.70666,6.70666,0,0,0-1.30944-3.94464C262.48824,488.71722,257.406,490.71411,249.34891,491.92941Z" transform="translate(-27.25229 -213)"/>
        <path class="cls-7" d="M236.69244,460.724l6.85,8.82639c.63016-1.04344,1.54675-2.59839,2.63523-4.54617,5.77377-10.3486,16.38016-31.856,14.5347-47.31141a15.62994,15.62994,0,0,1-2.06646-3.79327,5.28314,5.28314,0,0,0-.63016-1.25214c-1.73089,5.94975-7.68881,25.37434-15.57815,39.42619A59.98246,59.98246,0,0,1,236.69244,460.724Zm9.66934.60154a3.52525,3.52525,0,1,1-3.52321-3.52728A3.52592,3.52592,0,0,1,246.36178,461.32555Z" transform="translate(-27.25229 -213)"/>
        <path class="cls-7" d="M205.58524,545.657l.01636-.045c8.4172,2.90532,19.20773,1.01481,19.31822.99435v.0041c2.20968-.41739,3.86692-5.91291,4.86127-9.211.06546-.221.135-.44192.2005-.65471a199.949,199.949,0,0,1-27.19527,2.92575C202.7045,543.89749,205.16785,545.42381,205.58524,545.657Z" transform="translate(-27.25229 -213)"/>
        <path class="cls-7" d="M215.98294,472.91812c-8.52356,1.28076-23.94622,3.59683-31.10717,3.80962.11456,3.96513.83066,16.7198,5.40958,23.61067,2.95851,3.62551,10.55728,4.79991,18.51618,2.85622,6.809-1.66544,11.699-5.17636,12.45187-8.94915,1.62863-8.12668-.31506-18.63486-1.01889-21.95754C219.26881,472.423,217.70567,472.66032,215.98294,472.91812Z" transform="translate(-27.25229 -213)"/>
        <path class="cls-7" d="M164.65731,539.9201a30.10238,30.10238,0,0,0,5.25,8.62586c1.87823,1.66134,10.11944.72839,15.45949-.48285,2.93394-1.00661,4.50117-5.29092,5.119-7.97525-3.33085.06548-6.52261.09-9.477.09C173.46325,540.17789,167.47259,540.01421,164.65731,539.9201Z" transform="translate(-27.25229 -213)"/>
        <path class="cls-7" d="M121.33968,437.408l28.90161,32.66214,6.87042,7.76247,5.22136-8.2085-5.54052-5.17224L122.019,431.99837Zm33.97157,29.37627c1.559,0,2.82755,1.5836,2.82755,3.52728s-1.2685,3.52321-2.82755,3.52321c-1.56313,0-2.83164-1.57952-2.83164-3.52321S153.74812,466.78422,155.31125,466.78422Z" transform="translate(-27.25229 -213)"/>
        <path class="cls-7" d="M146.98,513.801a18.02632,18.02632,0,0,0,2.41015-9.95988h-.21686c-16.08555,0-20.91407-4.984-22.34219-7.61106a6.36451,6.36451,0,0,0-2.6966,4.55437,31.26208,31.26208,0,0,0,6.05612,19.12179l.10639-.27416C130.73486,519.79984,141.11619,523.6504,146.98,513.801Z" transform="translate(-27.25229 -213)"/>
      </g>
    </g>
  </g>
  <g>
    <path class="cls-8" d="M605.7353,407.49563a21.974,21.974,0,0,0,32.699,6.06838,54.202,54.202,0,0,1-8.50309.67109A44.22714,44.22714,0,0,1,605.7353,407.49563Z" transform="translate(-27.25229 -213)"/>
    <g>
      <path class="cls-8" d="M553.77132,397.1593a21.96946,21.96946,0,0,0,30.06782,5.70421c-1.14572.08185-2.2874.11866-3.41674.11866C569.30034,402.98217,558.99678,399.36078,553.77132,397.1593Z" transform="translate(-27.25229 -213)"/>
      <path class="cls-8" d="M703.56216,425.43483l-27.15439,23.83575-.29871-.29051.26195.32325-37.02828,30.00236q-1.05577,13.301,1.18664,22.05573l4.20246,1.41583c16.69937,1.89459,28.72974-9.36244,30.92308-11.58028-.266-2.623-1.3258-13.22936-1.66137-17.6937a14.77572,14.77572,0,0,1,2.72932-9.58749l.06144-.06548,31.25445-34.127C706.90936,428.68386,704.96977,426.87112,703.56216,425.43483Z" transform="translate(-27.25229 -213)"/>
      <path class="cls-8" d="M630.14393,469.14121c3.83418-2.81528,9.52613-6.93181,17.99655-12.98383,11.19968-8.008,22.47309-15.97506,24.7973-17.61594l.978-6.82951L663.203,421.49426a3.46564,3.46564,0,0,1-3.71959.978L655.6451,421.171a3.494,3.494,0,0,1-2.095-1.94778,2.94991,2.94991,0,0,1-.14326-.41739,22.25662,22.25662,0,0,1-8.76088,7.14869,48.91257,48.91257,0,0,1-20.18165,4.85307,33.83285,33.83285,0,0,1-12.17772-2.20558c-11.75623-4.48888-17.94739-14.43237-19.90332-18.11515-9.66529,7.23461-19.40011,9.61614-28.95891,7.07911a35.41393,35.41393,0,0,1-19.69472-14.51424l-5.254,23.15239,17.87781,40.55555C563.90715,468.03637,608.29688,475.1155,630.14393,469.14121Zm-64.559-35.547c.55235-.53195.55235-.52786,11.37975.6588,15.56584,1.71454,44.54523,4.89811,55.64266,3.68687q.44807-.04908.85931-.11046l1.66136-.23735-.27827,1.65725a37.50729,37.50729,0,0,1-1.98051,6.74356,40.67523,40.67523,0,0,1-4.56256,8.59315,31.42846,31.42846,0,0,1-7.206,7.39011,29.84442,29.84442,0,0,1-18.00059,5.55281,41.59473,41.59473,0,0,1-4.91856-.3028c-7.58244-.90434-13.749-2.59023-18.58572-5.09861a25.05908,25.05908,0,0,1-9.26019-7.82793c-3.46589-4.9513-4.42749-10.59-4.8735-15.91779-.1064-1.29715-.18412-2.57384-.2578-3.81782l-.03681-.56879Z" transform="translate(-27.25229 -213)"/>
      <path class="cls-8" d="M661.81173,395.367c3.56409-.21689,5.741.37646,6.65765,1.82093l.0532.08592c.02452.045.045.09.06548.135.65875,1.44855.57694,4.57892.02862,8.1635l3.76875,3.58457a54.64639,54.64639,0,0,0-3.41275-11.90766,56.40707,56.40707,0,0,0-16.43742-21.85522c-.05735-.045-.11459-.09411-.17189-.13914,5.07,6.07659,8.26577,13.438,8.69135,20.2471A3.29516,3.29516,0,0,1,661.81173,395.367Z" transform="translate(-27.25229 -213)"/>
      <path d="M624.70573,420.83545a24.38932,24.38932,0,0,0,18.11928-8.04073,24.11406,24.11406,0,0,0,6.27293-16.241,24.39043,24.39043,0,0,0-48.78041,0,24.02934,24.02934,0,0,0,1.42809,8.18395A24.41946,24.41946,0,0,0,624.70573,420.83545Zm0-2.45518a21.9637,21.9637,0,0,1-18.97043-10.88464,44.22714,44.22714,0,0,0,24.19589,6.73947,54.202,54.202,0,0,0,8.50309-.67109A21.89265,21.89265,0,0,1,624.70573,418.38027Zm0-43.65727a21.90828,21.90828,0,0,1,21.937,21.83067,21.65986,21.65986,0,0,1-4.99628,13.85135c-2.88891.72019-22.68179,5.05357-37.89577-7.39011a21.83113,21.83113,0,0,1,20.955-28.29191Z" transform="translate(-27.25229 -213)"/>
      <path class="cls-8" d="M601.88479,373.21715c6.92768-6.674,14.506-10.40179,22.14571-11.06062-16.11-3.77278-27.09295-3.39223-32.07285-2.86438A26.62175,26.62175,0,0,1,601.88479,373.21715Z" transform="translate(-27.25229 -213)"/>
      <path class="cls-8" d="M547.42876,507.32342a2.52873,2.52873,0,0,0,2.39794-.74065c1.424-1.514,1.88225-4.804,1.86592-8.43765a.39609.39609,0,0,1-.0041-.06955,69.70515,69.70515,0,0,0-1.1212-11.17109l-1.18258.73245L534.1749,437.011l-.06554.32326-1.3135-4.91856-.01229-.04091-6.7599-25.317a3.92912,3.92912,0,0,1-.135-.96979,22.30886,22.30886,0,0,1-5.88841,1.39945c1.24808,6.56351,7.67246,39.7617,11.88311,50.87142,4.50527,11.89538,6.273,40.74379,6.50216,44.90533l.00409.00409a13.98328,13.98328,0,0,0,8.90005,4.04287Z" transform="translate(-27.25229 -213)"/>
      <path class="cls-8" d="M491.52426,391.25458l-26.54469,21.12277c-15.00523,18.91719-20.45987,57.71729-20.67266,59.30908,0,.00816-.00409.02045-.00409.03271-.01634.8184-.12273,6.0275.15554,11.343a68.26833,68.26833,0,0,0,.67924,7.06275c.67928,4.25974,1.5181,4.718,1.56316,4.74259,1.784.712,5.95789-.28642,9.11693-2.17694a11.26039,11.26039,0,0,0,2.29964-1.75954v-4.19018c-.16774-2.15238-2.7948-36.68456.02457-50.409,2.58616-12.591,31.17673-33.415,38.65277-38.67735A16.34661,16.34661,0,0,1,491.52426,391.25458Z" transform="translate(-27.25229 -213)"/>
      <path class="cls-8" d="M371.85444,451.84035c5.01267,1.14575,35.53879,7.54151,61.44508.06137,4.87353-23.5575,21.38059-46.07972,23.74166-49.21826l-.06553-73.02948c-.10635-2.95848-.401-10.59819-.55236-11.924-.24965-.622-2.23425-2.41427-4.48074-4.092a25.50664,25.50664,0,0,1-11.613,6.97681c-10.00486,2.60249-19.96883,1.50994-27.3262-3.00762a23.405,23.405,0,0,1-9.70617-11.31839c-1.19485,3.99377-4.19018,7.73791-8.72409,10.81918a37.70358,37.70358,0,0,1-19.96474,6.21981c-.23324.00409-.46649.00409-.69973.00409-7.23461,0-13.54033-2.20148-18.27065-6.39168a23.66042,23.66042,0,0,1-3.50683-3.8669c-1.9846.9125-3.40043,4.34568-3.80143,5.696l-1.61224,8.5645c.02455,3.46592.31916,49.89344.07775,62.70132C348.69385,393.75477,365.35229,426.72381,371.85444,451.84035Zm2.66388-55.033c14.89887.5074,54.28412.87157,62.45581-3.17947-.0532-.07775-.1064-.1555-.1555-.23734a14.82445,14.82445,0,0,1-.82659-1.40764,10.75411,10.75411,0,0,1-.5033-1.12529c-.11049-.29052-.16369-.47466-.16369-.47466a.91614.91614,0,0,1,.131.02455c.08182.02045.21279.04091.36005.09a6.36581,6.36581,0,0,1,1.17034.47878,8.0553,8.0553,0,0,1,1.44039.95751,8.24408,8.24408,0,0,1,.712.6588,8.29271,8.29271,0,0,1,1.23578,1.6,6.33243,6.33243,0,0,1,.45825.892,5.58187,5.58187,0,0,1,.311.91251,5.20438,5.20438,0,0,1,.14736.86749,3.59789,3.59789,0,0,1-.01229.76113c-.01638.11046-.02457.21276-.04505.311-.02453.09823-.05725.18824-.08182.266-.04911.15549-.11049.27415-.13912.3478-.03681.07775-.06139.11869-.06139.11869s-.02867-.04094-.08182-.11049c-.04505-.07366-.12687-.176-.20459-.29871a1.61254,1.61254,0,0,0-.131-.19234c-.06134-.06955-.11458-.14321-.18-.21686-.12687-.1514-.23327-.31918-.39691-.491-.15555-.17186-.29056-.356-.47473-.54834-.12683-.1473-.25775-.3028-.39691-.46239a43.6113,43.6113,0,0,1-2.26692,5.1559,40.52713,40.52713,0,0,1-7.9589,10.77418,31.02734,31.02734,0,0,1-22.0271,8.64634c-.37236,0-.74884-.00819-1.12939-.01638-17.80825-.52786-23.73755-4.87763-27.40394-11.37159a60.65652,60.65652,0,0,1-3.00352-6.51442c-.60151-1.44038-1.2194-2.92986-1.93549-4.47255l-.83885-1.80864Z" transform="translate(-27.25229 -213)"/>
      <path class="cls-8" d="M403.23989,274.47372a33.59257,33.59257,0,0,1,8.84275-7.5497,30.88471,30.88471,0,0,1,10.88874-3.90373,49.11477,49.11477,0,0,0-17.6937-3.74007,56.50873,56.50873,0,0,0-22.2849,4.12881C389.67089,264.36244,398.12492,267.09588,403.23989,274.47372Z" transform="translate(-27.25229 -213)"/>
      <path class="cls-8" d="M360.09411,498.05511a19.41854,19.41854,0,0,0,.87567-3.27358c.12685-.86342.22507-1.84139.29873-2.89712a.66354.66354,0,0,0,.00409-.09c.48692-7.12821-.08594-17.90646-.56469-24.10991l-1.64908.32736.01229-1.50994c.00407-.27416.02862-27.98909-17.40728-66.52321l-26.45052-29.54c-1.05572.39691-3.49864,1.66134-6.62082,5.49552,4.92266,5.08222,37.2288,38.81236,40.31005,52.59,3.23676,14.47331-2.0337,57.81961-2.25876,59.6569l-.00409.02046h.00409l-.01638.12685-.18,1.4731-.02864-.01226-.33145,2.38153c3.72371,3.07715,9.99669,5.85971,13.348,6.183A.73584.73584,0,0,0,360.09411,498.05511Z" transform="translate(-27.25229 -213)"/>
      <path class="cls-8" d="M263.14294,417.39412c1.91914,15.96277-8.37216,37.25332-14.37918,48.06841-.12275,6.95635-.03274,16.196.42147,24.0076,9.97213-1.5263,12.73831-3.89964,13.49125-5.20907.02045-.03275.03681-.06956.05727-.1023l.01228-.53195c.02865-.85524.446-14.55926,1.2235-26.66332-.01226-.09411-.04091-.27006-.07365-.5115-.045-.37645-.11049-.9125-.18415-1.555-.0491-.31916-.07365-.67109-.12685-1.03525-.0491-.36829-.0982-.757-.1473-1.158-.11049-.802-.23325-1.65724-.36419-2.51248-.07366-.42965-.14321-.8552-.21686-1.27669s-.14733-.83475-.221-1.23578-.15957-.78566-.21686-1.15392c-.06548-.37238-.11459-.72429-.1555-1.05574-.07774-.66289-.11049-1.23168-.11865-1.64088s.00816-.6588.00816-.6588a1.6675,1.6675,0,0,1,.13095.11456,4.86272,4.86272,0,0,1,.34374.35193,8.90362,8.90362,0,0,1,.978,1.379,10.13943,10.13943,0,0,1,.50333.99025c.15957.356.311.74065.45011,1.14165.0491.135.0982.27009.14323.4092.221-2.30378.46237-4.317.72017-5.86378,1.53858-9.22333,15.13623-44.9258,18.38523-53.37164a15.63325,15.63325,0,0,1-7.51286-2.10326Z" transform="translate(-27.25229 -213)"/>
      <path class="cls-8" d="M157.48,461.73884c6.0684-.13095,66.09767-1.6327,83.25531-11.67442,8.20441-15.02571,14.371-36.16077,15.29171-39.40161-.35193-.92888-.85114-2.76618-1.84549-6.539-.937-3.5559-2.20148-8.49492-3.76052-14.69017-2.46338-9.79619-4.90218-19.69058-5.25411-21.11868v-.00409c-.37645-.536-3.74823-4.48481-20.865-5.26227a42.16385,42.16385,0,0,1-77.35467,16.3106c-9.93533,3.41269-31.53685,12.501-32.85038,20.87316l8.08984,28.55788Zm48.3753-40.88293a10.30075,10.30075,0,1,1,0,20.58263c-6.06838,0-12.85288-4.17789-12.85288-9.77571C193.00242,425.844,200.06927,420.85591,205.8553,420.85591Z" transform="translate(-27.25229 -213)"/>
      <path class="cls-8" d="M223.03752,344.90068a157.50339,157.50339,0,0,1,15.79092,2.6516,58.98975,58.98975,0,0,0-14.81295-18.7617c-8.92867-7.46375-19.80924-11.85853-32.18746-13.11067A42.31906,42.31906,0,0,1,223.03752,344.90068Z" transform="translate(-27.25229 -213)"/>
      <path class="cls-8" d="M140.60879,360.91258c-.13094-1.33808-.19643-2.70069-.19643-4.07561A42.245,42.245,0,0,1,170.517,316.42465q-3.40043.534-6.89906,1.3217-2.09918.47263-4.11653,1.0148a88.968,88.968,0,0,0-14.371,5.115c-14.5388,6.70266-24.69915,16.88758-30.31745,30.42791a59.84682,59.84682,0,0,0-4.448,24.29408C115.13216,374.768,128.17328,364.89816,140.60879,360.91258Z" transform="translate(-27.25229 -213)"/>
      <path class="cls-8" d="M128.68477,494.3314c.14731.56879,2.26285,7.0873,20.57853,7.05456l-1.649-30.57932L120.374,440.02682c-1.6859,2.1892-4.81627,1.61224-6.39576.90841L77.5269,426.11411a40.69356,40.69356,0,0,1-4.28838,7.84431c5.66738,2.983,27.08478,14.10912,36.91371,17.01034,11.27748,3.32678,15.41856,8.8632,16.03235,11.32249C126.5733,463.82983,128.32058,489.08141,128.68477,494.3314Z" transform="translate(-27.25229 -213)"/>
    </g>
  </g>
</svg>
